<?xml version="1.0" encoding="UTF-8"?>
<svg id="_Слой_1" data-name="Слой_1" xmlns="http://www.w3.org/2000/svg" version="1.1" viewBox="0 0 24 48">
  <defs><style>.st0 {fill: #fcf6ea;}</style></defs>
  <path class="st0" d="M23.2,0c-.4,0-.8.2-1.3.5-1.5.7-3.7,2.1-5,3.2-.8.7-1.4,1.4-1.6,1.8,0,.2,0,0,0-.2,0-.1,0-.2,0-.2,0,0-.5.4-.7.6-.6.8-1.1,1.7-1.2,2.5v.3s-.1-.2-.1-.2c-.1-.2-.1-.5,0-.7,0-.1,0-.2,0-.2,0,0-1.1,1.4-2.1,2.7-1.2,1.6-1.5,2.2-2.2,3.5-.9,1.9-1.1,2.3-1.1,3.1,0,.2,0,.5,0,.5,0,0-.1.2-.3.3-.2.2-.2.2-.2.4,0,.4,0,1,0,1.4,0,.4.2.9.2.9,0,0,.3.7.3.7,0,0,0,.2.1.4l.2.3v-.2c-.2,0-.4-.3-.5-.5-.4-.7-.6-1.3-.7-2.1v-.5c0,0-.1.4-.1.4,0,.2-.2,1.2-.4,2.3-.2,1-.4,2.2-.4,2.6v.7c-.1,0,.2,1.2.2,1.2.1.7.3,1.2.3,1.3,0,0-.1-.2-.2-.5-.4-.9-.4-1-.4-1s-.2,1.6-.3,2.2c0,.3,0,1,0,1.9,0,2.3,0,2.8.6,4,.2.5.2.5,0,0-.2-.3-.2-.3-.1,0h0c0,.1-.1,0-.1,0-.3-.4-.7-.8-1-.9-.1,0,0,0,0,0,.4.2.7.6.9,1.1v.2c.1,0,0-.2,0-.2-.2-.2-.5-.5-.6-.5q0,0,0,0c.2.2.4.3.5.4h0c0,.1-.1,0-.1,0,0,0-.2,0-.3,0-.3,0-.5.1-.8.4-.1.1-.3.3-.4.3-.4.3-.5.8-.3,1.4,0,.1,0,.3.1.4.1.6.7,1,1.3,1.1h.2s0,.4,0,.4c0,.9-.3,1.7-.9,2.3-.6.6-1.2.9-2.4,1.2-.3,0-.6.2-.7.2-.3.2-.6.4-.7.7-.2.4-.2.6-.2,1.2,0,.6,0,1,.3,1.6.2.5.6,1.3.8,1.7l.2.3h0c0,.3,0,.4,0,.5.1,0,1,.2,1.9.3,1.5.1,4.8,0,6.4,0,1.1,0,1.4-.2,1.5-.2,0-.1,0-.3,0-.4h0c0,0,.2-.3.2-.3.4-.5.7-1.1.9-1.8.2-.5.3-1,.3-1.6,0-.8-.1-1.3-.5-1.6-.3-.3-.5-.4-1.1-.5-1.1-.3-1.7-.6-2.2-1.1-.6-.6-1-1.3-1-2.3,0-.5,0-.7.1-.7s.3-.1.4-.2c0-.1.1-.4,0-.4,0,0,0,0,.2-.2.1,0,.2-.1.2-.1,0,0,.3-.3.4-.5,0-.1,0-.2,0-.6s0-.4-.1-.6c0-.2,0-.3,0-.4,0-.6-.5-1-1.1-.9-.2,0-.2,0,0-.2.2-.3.6-.8.9-1.1.2-.2.3-.3.3-.3,0,0-.3.2-.6.4-.2.1-.2.1-.2,0,.3-.2.9-.7,1.4-1,1.6-1,2.4-1.9,3.1-3.3.6-1.1.8-1.7,1.3-3.8.2-.7.4-1.5.5-1.8l.2-.5h-.2c0,.2-.1.2-.1.2.4-1,1-2.6,1.4-4.2.4-1.2.4-1.4.2-1.1-.3.5-.9,1-1.4,1.3-.2,0-.3.2-.3.2s0,0,.2-.2c.3-.3,1.1-1,1.3-1.3.2-.4.5-.9.9-1.8.2-.4.5-1,.6-1.4,1-2.1,1.6-3.6,2.1-5.5.3-1,.5-1.6.8-2.4.1-.3.2-.6.2-.6s-.3.2-.7.5c-.4.3-.7.5-.7.5s0,0,.1-.2c.2-.2.6-.6,1.2-1.1.3-.2.3-.3.6-.9.7-1.3,1.2-2.2,2.1-3.2.4-.5.5-.6.5-.7,0,0-.2,0-.6,0ZM14.1,12s-.2.4-.3.7c-1.7,3.5-2.5,5.4-3.6,8.9-.7,2.1-1.3,4.3-2.1,7.5-.3,1-1.1,4.3-1.1,4.4s-.2,0-.2,0c0,0,0-.4.5-2.1.5-2.3,1.1-4.3,1.6-6.3.4-1.5.4-1.4.3-1.4s0,0,0-.1,0-.1,0-.1c0,0,.1,0,.6-1.4.8-2.3,1.3-3.8,2.1-5.7.7-1.7,2-4.4,2.1-4.4s0,0,0,0ZM8.7,33.5c.3.1.4.3.4.6v.2h0c-.1-.4-.2-.5-.4-.6-.2-.1-.2-.1-.5-.1h-.3.1c.2-.1.5-.2.7,0ZM5.3,33.9c.1,0,.4.2.4.3s-.1,0-.2,0c-.3-.1-.7,0-1.1,0q0,0,0,0c.2-.2.5-.3.9-.2ZM8.3,33.9h.2c0,0-.2,0-.2,0-.3,0-.5,0-.7.2-.2.1-.2.1-.1,0,0-.1.1-.2.3-.3.1,0,.4,0,.6,0ZM8.6,34.2c.1,0,.2.1.2.2,0,0,0,.3-.1.4h-.1c0,.1-.2,0-.2,0-.2,0-.5-.1-.7,0,0,0-.3,0-.3,0,0,0,.4-.4.5-.5.2,0,.5,0,.8,0ZM5.4,34.3c.2,0,.2.1.1.1-.5,0-.6,0-.8.1-.1,0-.3.1-.3.2-.1,0-.1,0-.2,0,0,0,0-.2,0-.3,0,0,.3-.2.5-.2.1,0,.5,0,.7,0ZM4.2,34.6c0,.2,0,.2-.1.3-.2.1-.4.6-.4.7s0,0,0,0c0,0,0-.5,0-.7,0-.1.1-.2.3-.4.1-.1.2-.2.2-.2s0,0,0,.2ZM5.9,34.5s0,0,.1.1c0,0,0,0-.1,0-.2-.1-.2-.1-.1-.1s.1,0,.2,0ZM9,34.6c.1,0,.2.6,0,.7h0c0,0,0,0,0,0,0,0-.1-.2-.2-.3-.1-.2-.2-.2,0-.2.1,0,.3-.3.3-.3,0,0,0,0,0,0,0,0,0,0,0,0,0,0,0,0,0,0ZM4.9,34.8c0,.1-.2.2-.2.3,0,0,0,.1,0,.1,0,0-.2-.2-.2-.3s.7-.4.7-.3c0,0,0,0-.2.2ZM5.9,34.9c.2.1.3.2.3.3s0,0-.2,0c-.5-.3-.9-.3-1.2,0,0,0-.1.1-.1.1s0,0,0,.2c0,.1,0,.2,0,.3,0,.2,0,.2,0,0-.1-.2,0-.6,0-.8.1-.2.2-.2.4-.3.1,0,.1,0,.3,0,.1,0,.3.1.4.2ZM7.5,34.8s-.2.1-.3.1c0,0,0-.1.1-.1s.1,0,.1,0ZM8.4,34.9c.1,0,.2.1.4.3.3.3.3.4.1.5-.1.1-.3.2-.5.3-.1,0-.1,0,0,0,.1,0,.4-.1.6-.3h.1c0-.1,0,0,0,0,0,0,0,.2,0,.2,0,.1-.3.3-.5.4-.1,0-.1,0-.3,0-.1,0-.2,0-.7-.1-.4,0-.6,0-.6,0s.2-.9.2-1.1c0,0,.3-.2.4-.3.2,0,.4.2.4.5s-.1.4-.3.4,0,0,0,0c0,0,.2-.1.3-.3,0-.2,0-.5-.1-.6,0,0,0,0,0,0,0,0,.3,0,.5,0ZM4.4,35.1c0,0,.1.1.2.1s0,0,0,.2c0,.3.1.6.4.8h.1c0,0-.1.1-.1.1-.2,0-.4.3-.4.4s.1.3.4.5h.2c0,.1-.2,0-.2,0-.4,0-.9-.4-1.1-.8-.1-.3-.1-.3,0-.1l.2.2-.2-.2c-.1-.1-.2-.3-.2-.3,0-.2,0-.5.1-.6,0-.1.3-.5.4-.5s0,0,.2.1ZM5.8,35.1c.2,0,.4.3.4.4,0,.2,0,.5-.2.6,0,0,0,0,0,0,0,0,.1,0,0,0,0,0,0,0-.3,0-.3,0-.5,0-.7-.2-.1,0-.2-.2,0-.2,0,0,0,0,0,0-.1-.2,0-.6.3-.7.1,0,.4,0,.6,0ZM9.2,35.6c0,.2-.1.3-.1,0s.1-.5.1-.4c0,0,0,.2,0,.3Z"/>
  <path class="st0" d="M7.5,35.5s0,0,0,0c0,0,0,0,0,0,0,0,0,0,0,0Z"/>
  <path class="st0" d="M8.1,36s0,0,0,0c0,0,0,0,0,0s0,0,0,0Z"/>
</svg>