<?xml version="1.0" encoding="UTF-8"?>
<svg id="_Слой_1" data-name="Слой 1" xmlns="http://www.w3.org/2000/svg" viewBox="0 0 1700 744">
  <defs>
    <style>.cls-1 {fill: #87756C;}
    </style>
  </defs>
  <g>
    <path class="cls-1" d="M48.52,5.67v4.5h-14v8h13.9l.3,3.7c.2,2.1.6,3.7,1.1,3.5.4-.1,3.4-.2,6.7-.2h6v-7h14v-8h-14V1.17h-14v4.5Z"/>
    <path class="cls-1" d="M162.22,1.87c-.4.3-.7,2.4-.7,4.5v3.8h-14v8h13.9l.3,3.7.3,3.8,6.8.2,6.7.3v-8h14v-8h-14V1.17h-6.3c-3.5,0-6.7.3-7,.7Z"/>
    <path class="cls-1" d="M275.52,5.67v4.5h-14v8h13.9l.3,3.7c.2,2.1.6,3.7,1.1,3.5.4-.1,3.4-.2,6.7-.2h6v-7h14v-7.9l-6.7-.3-6.8-.3-.3-4.3-.3-4.2h-13.9v4.5Z"/>
    <path class="cls-1" d="M388.22,1.77c-.4.4-.7,2.5-.7,4.6v3.8h-13v7.9l6.7.3,6.7.3.1,3.5v3.5h14l.3-3.8.3-3.7h12.7l.4-4,.3-3.9-6.9-.3-7-.3v-4l-.1-4-6.5-.3c-3.6-.2-6.9,0-7.3.4Z"/>
    <path class="cls-1" d="M502.52,5.67v4.5h-14v8h14v8.1l6.8-.3,6.7-.3.3-3.8.3-3.7h13.9v-8h-14V1.17h-14v4.5Z"/>
    <path class="cls-1" d="M616.52,5.67v4.5h-14v8h13.9l.3,3.7.3,3.8h13.5v-7.5h14v-8.5h-13.5l-.3-4.3-.3-4.2h-13.9v4.5Z"/>
    <path class="cls-1" d="M731.52,5.67v4.5h-14v8h14v7h14v-7h14v-9h-14V1.17h-14v4.5Z"/>
    <path class="cls-1" d="M845.32,5.37l-.3,4.3-6.7.3-6.8.3v7.8l6.8.3,6.7.3.3,3.5.3,3.5,6.7-.1,6.7-.2.3-3.5.3-3.6,6.7-.3,6.7-.3v-7.9l-6.7.3-6.8.2V1.17h-13.9l-.3,4.2Z"/>
    <path class="cls-1" d="M958.72,5.37l.3,4.3-6.8.3-6.7.3v7.8l6.8.3,6.7.3v6.5h14.5v-6.9l6.8-.3,6.7-.3v-8l-6.7-.3-6.8-.3V1.17h-15.2l.4,4.2Z"/>
    <path class="cls-1" d="M1072.52,5.67v4.5h-14v8h14v7.5l7-.3,7-.4v-6.8h14.1l-.3-4.2-.3-4.2-6.7.3-6.8.2V1.17h-14v4.5Z"/>
    <path class="cls-1" d="M1186.52,5.67v4.5h-14v8h14v7h14v-7h14v-8h-14V1.17h-14v4.5Z"/>
    <path class="cls-1" d="M1300.52,5.67v4.5h-13v7.9l6.8.3,6.7.3v6.5h14.5v-6.9l6.7-.3,6.6-.3v-8l-6.7.3-6.6.3V1.17h-15v4.5Z"/>
    <path class="cls-1" d="M21.52,29.17v4h12.9l.3,3.2.3,3.3h13.5v6.5h13.9l.3-3.2c.3-2.8.7-3.2,3.3-3.3,10.8-.4,10.5-.3,10.5-3.5v-3h14v-8h-14v6h-14v7.1l-6.7-.3-6.8-.3-.3-3.3-.3-3.2h-12.9v-6h-14v4Z"/>
    <path class="cls-1" d="M134.52,29.67v4.5h14v6h13v6h14v-6h14v-7h14v-8h-14v6h-14v7h-12.9l-.3-3.3-.3-3.2-6.7-.3q-6.8-.3-6.8-3.2v-3h-14v4.5Z"/>
    <path class="cls-1" d="M248.52,29.17v3.9l6.8.3,6.7.3v3l.1,3h13.4v6.5h13.9l.3-3.2c.2-2.7.7-3.3,2.8-3.3,11.7-.5,11-.3,11-3.5v-3h14v-8h-14v6h-14v7h-13v-7h-14v-6h-14v4Z"/>
    <path class="cls-1" d="M360.52,29.77v4.5l6.8-.3,6.7-.3.3,3.2.3,3.3h12.9v6h14v-5.9l7.2-.3,7.2-.3.1-3v-3l6.8-.3,6.7-.3v-7.9h-14v3q0,2.9-6.7,3.2l-6.8.3-.3,3.2-.3,3.3h-12.9v-7h-14v-6h-14v4.6Z"/>
    <path class="cls-1" d="M474.72,29.37l.3,4.3,6.8.3q6.7.3,6.7,3.2v3h14v6h14v-3q0-2.9,6.8-3.2l6.7-.3.3-3.3.3-3.2h13.9v-8h-14v6h-14v7h-14v-7h-14v-6h-14.1l.3,4.2Z"/>
    <path class="cls-1" d="M589.52,29.17v3.9l6.8.3,6.7.3v3l.1,3h13.4v6.5h13.9l.3-3.2c.3-2.8.7-3.2,3.3-3.3,10.8-.4,10.5-.3,10.5-3.5v-3h14v-8h-14v6h-14v7h-13v-7h-14v-6h-14v4Z"/>
    <path class="cls-1" d="M704.52,29.17v3.9l6.8.3c6.5.3,6.7.4,7,3,.3,2.7.5,2.8,6.8,2.8h6.4v7h13.9l.3-3.3.3-3.2,6.8-.3q6.7-.3,6.7-3.2v-3h14v-8h-14v6h-14v3c0,2.6-.4,3-2.7,3.1-1.6,0-4.5.1-6.6.2-3.6.2-3.7.1-3.7-3.1v-3.2h-14v-6h-14v4Z"/>
    <path class="cls-1" d="M817.52,29.17v4h14v7.1l6.8-.3,6.7-.3.3,3.3.3,3.2h13.9v-3.6c0-1.9.4-3.3.9-3s3.7.3,7-.1c6-.6,6.2-.7,5.9-3.2-.3-2.6-.2-2.6,7-2.9l7.2-.3v-7.9h-15v3q0,2.9-6.7,3.2l-6.8.3-.3,3.2-.3,3.3h-12.9v-7h-14v-6h-14v4Z"/>
    <path class="cls-1" d="M931.52,29.17v4h14v3q0,2.9,6.8,3.2l6.7.3-.3,3.2-.4,3.3h15.4l-.4-3.3-.3-3.2,7.3-.3q7.3-.3,7-3c-.3-2.7-.2-2.7,6.7-3.2l7-.5.3-3.8.3-3.7h-15.1v6h-14.2l.4,3c.4,2.8.2,3-2.6,3.1-1.7,0-4.8.1-6.9.2-3.6.2-3.7.1-3.7-3.1v-3.2h-14v-6h-14v4Z"/>
    <path class="cls-1" d="M1044.72,29.37l.3,4.2,6.7-.3,6.7-.2.3,3.3.3,3.3h6.5l6.5.1.3,3.2.3,3.2h13.9v-3.6c0-1.9.4-3.3.9-3s3.6.3,7,0c5.9-.7,6.1-.8,6.1-3.5v-2.9h14v-8h-14v6h-13.9l-.3,3.2-.3,3.3-6.7.3-6.8.3v-7.1h-14v-6h-14.1l.3,4.2Z"/>
    <path class="cls-1" d="M1159.52,29.37v4.3l6.4-.3,6.5-.4.3,3.4.3,3.3h13.5v6.5h14v-3.6c0-1.9.4-3.3.9-3s3.6.3,7,0c5.9-.7,6.1-.8,6.1-3.5v-2.9h14v-8h-14v6h-14v7h-14v-7h-13v-6h-14v4.2Z"/>
    <path class="cls-1" d="M1273.52,29.17v4h14v6h13v7h13.9l.3-3.3.3-3.2,7.1-.3,7-.3-.4-2.9-.4-3h14l.4-4,.4-4h-14.6v6h-14v6.5h-13v-6.5h-14v-6h-14v4Z"/>
    <path class="cls-1" d="M90.52,39.67v3.5h-14v6h-14v7h-14v-7h-13v-6h-14v-6H7.52v8h14v7h6.4c6.3,0,6.5.1,6.8,2.7.3,2.7.5,2.8,7,3.1l6.7.3.3,3.2c.2,1.8.6,3.1,1.1,2.9.4-.1,3.4-.2,6.7-.2h6v-6h14v-7h14v-6h14v-9h-14v3.5Z"/>
    <path class="cls-1" d="M203.52,39.67v3.5h-14v3q0,2.9-6.7,3.2l-6.8.3-.3,3.2-.3,3.3h-12.8l-.3-3.3-.3-3.2-6.7-.3q-6.8-.3-6.8-3.2v-3h-14v-6h-14v8h14v7h14v6h12.9l.3,3.2.3,3.3,6.8.3,6.7.3v-7.1h14v-2.9c0-2.7.2-2.9,6-3.5,3.3-.4,6.5-.4,7-.1.6.4,1-.9,1-2.9v-3.6h14v-9h-14v3.5Z"/>
    <path class="cls-1" d="M317.52,39.67v3.5h-14v6h-14v7h-12.9l-.3-3.3-.3-3.2-6.7-.3q-6.8-.3-6.8-3.2v-3h-14v-6h-14v8h14v7h14v6h13v6h14v-6h14v-7h14v-6h14v-9h-14v3.5Z"/>
    <path class="cls-1" d="M429.52,39.67v3.5h-14v3q0,2.9-6.7,3.2l-6.8.3-.3,3.2-.3,3.3h-12.8l-.3-3.3-.3-3.2-6.7-.3q-6.8-.3-6.8-3.2v-3h-14v-6h-14v8h14v7h14v6h12.9l.3,3.2.3,3.3h13.5v-6.5h13.9l.3-3.3.3-3.2,7-.1,7-.1-.3-3.2-.4-3.1h14.2v-9h-14v3.5Z"/>
    <path class="cls-1" d="M544.22,36.77c-.4.4-.7,2-.7,3.6q0,2.8-6.5,2.8h-6.5v6h-14v7h-14v-7h-14v-6h-13v-6h-14v8h13v7h14v6h14v7.1l6.8-.3,6.7-.3.3-3.3.3-3.2h13.9v-3q0-3.2,10-3.5c3.2-.1,3.5-.4,3.8-3.3q.3-3.1,6.9-3.4l6.6-.3v-8l-6.4-.3c-3.6-.2-6.8,0-7.2.4Z"/>
    <path class="cls-1" d="M658.52,39.67v3.5h-14v6h-14v7h-12.9l-.3-3.3-.3-3.2-6.7-.3q-6.8-.3-6.8-3.2v-3h-14v-6h-14v8h14v7h14.1l-.3,2.7q-.3,2.8,6.4,3.1l6.7.3.3,3.2c.2,1.8.6,3.1,1.1,2.9.4-.1,3.4-.2,6.7-.2h6v-6h14v-7h14v-6h14v-9h-14v3.5Z"/>
    <path class="cls-1" d="M773.52,39.67v3.5h-14v6h-14v7h-13v-7h-14v-6h-14v-6h-14v8h14v7.1l6.8-.3,6.7-.3.3,3.2.3,3.3h12.9v6h14v-6h14v-7h14v-6h14v-9h-14v3.5Z"/>
    <path class="cls-1" d="M886.52,39.67v3.5h-14v3q0,2.9-6.7,3.2l-6.8.3-.3,3.2-.3,3.3h-12.9v-7h-14v-6h-13v-6h-14.5v8h13.5v7h14v6h14v6.5l7-.3q7-.4,7-3.2c0-2.9.1-2.9,6.8-3.2l6.7-.3v-3l.1-3,7.3-.3,7.3-.3-.4-2.9-.5-3h13.7v-9h-14v3.5Z"/>
    <path class="cls-1" d="M1000.52,39.67v3.5h-14v3q0,2.9-6.7,3.2l-6.8.3-.3,3.2-.3,3.3h-12.9v-7h-14v-6h-14v-6h-14v8h14v3q0,2.9,6.8,3.2l6.7.3.3,3.3.3,3.3,6.7-.2,6.7-.2-.3,3.1-.4,3.2h15.4l-.4-3-.4-2.9,7-.3,7.1-.3v-3l.1-3,7.3-.3,7.3-.3-.4-2.9-.5-3h13.7v-9h-14v3.5Z"/>
    <path class="cls-1" d="M1114.22,36.77c-.4.4-.7,2-.7,3.6q0,2.8-6.5,2.8h-6.5v6h-14v7h-14v-7h-14v-6h-13v-6h-15v8h13.9l.3,3.2.3,3.3,6.8.3q6.7.3,6.7,3.2v3h14v6.5l7-.3q7-.4,7-3.2c0-2.9.1-2.9,6.8-3.2l6.7-.3.3-3.3.3-3.2h13.9v-3q0-2.9,6.8-3.2l6.7-.3v-8l-6.5-.3c-3.6-.2-6.9,0-7.3.4Z"/>
    <path class="cls-1" d="M1228.52,39.67v3.5h-14v6h-14v7h-14v-7h-13v-6h-14v-6h-14v8h14v7h13v6h14v6h14v-6h14v-7h14v-6h14v-9h-14v3.5Z"/>
    <path class="cls-1" d="M1342.52,39.67v3.5h-14v3q0,2.9-6.7,3.2l-6.8.3-.3,3.2-.3,3.3h-12.9v-7h-14v-6h-13v-6h-15v8h13.9l.3,3.2.3,3.3,6.8-.3,6.7-.3v7.1h13v6h14.7l-.5-3-.4-2.9,7.3-.3,7.3-.3.1-3v-3l7.1-.3,7-.3-.4-2.9-.4-3h14.2v-9h-14v3.5Z"/>
    <path class="cls-1" d="M544.82,67.97l-4.3.3v8.9h-9v10h9v10h10v-9.9l4.3-.3,4.2-.3.3-4.8.3-4.7h-9.1v-4.4c0-2.5-.3-4.6-.7-4.8-.5-.2-2.7-.2-5,0Z"/>
    <path class="cls-1" d="M848.22,67.77c-.4.4-.7,2.7-.7,5.1v4.3h-9v10h8.9l.3,4.7.3,4.8,4.8.3,4.7.3v-11.3l4.3.4,4.2.3.3-4.8.3-4.7h-9l-.3-4.8-.3-4.7-4-.3c-2.3-.2-4.4,0-4.8.4Z"/>
    <path class="cls-1" d="M1074.82,68.47c-.2.4-.3,2.4-.1,4.5l.3,3.7-4.8.3-4.8.3.3,4.7.3,4.7,4.5.5,4.5.5v9l4.8.3,4.7.3v-10.1h9v-10h-9v-8.8l-4.6-.4c-2.5-.2-4.8,0-5.1.5Z"/>
    <path class="cls-1" d="M1225.02,68.17c-.4.6-.5,2.7-.3,4.8l.3,3.7-4.8.3-4.8.3.3,4.7.3,4.7,4.5.5,4.5.5v9l4.8.3,4.7.3v-10.9l4.3.1,4.2.2.3-4.8.3-4.7h-9.1v-10h-4.4c-2.5,0-4.8.5-5.1,1Z"/>
    <path class="cls-1" d="M15.52,72.67v4.5H6.52v10h9v10h10v-10h9v-10h-9v-9h-10v4.5Z"/>
    <path class="cls-1" d="M50.52,72.67v4.5h-9v10h9v10h10v-10h10v-9.9l-4.7-.3-4.8-.3-.3-4.3-.3-4.2h-9.9v4.5Z"/>
    <path class="cls-1" d="M86.52,72.67v4.5h-10v10h10v10h9v-10h9v-10h-9v-9h-9v4.5Z"/>
    <path class="cls-1" d="M129.52,72.67v4.5h-10v10h10v10h10v-9.9l4.8-.3,4.7-.3.3-4.8.3-4.7h-10.1v-9h-10v4.5Z"/>
    <path class="cls-1" d="M164.52,72.67v4.5h-9v10h9v10.1l4.8-.3,4.7-.3.3-4.7.3-4.7,4.2-.3,4.2-.3.3-4.8.3-4.7h-9.1v-9h-10v4.5Z"/>
    <path class="cls-1" d="M199.52,72.57v4.5l-4.7.3-4.8.3-.3,4.7-.3,4.8h10.1v10h10v-10h10v-10h-10v-9h-10v4.4Z"/>
    <path class="cls-1" d="M241.52,72.67v4.5h-9v10h8.9l.3,4.7.3,4.8,4.8.3,4.7.3v-10.1h9v-10h-9v-9h-10v4.5Z"/>
    <path class="cls-1" d="M278.52,72.67v4.5h-10v10h10v10h10v-9.9l4.8-.3,4.7-.3.3-4.8.3-4.7h-10.1v-9h-10v4.5Z"/>
    <path class="cls-1" d="M313.52,72.67v4.5h-9v10h9v10h9v-9.9l4.8-.3,4.7-.3.3-4.7.3-4.7-4.8-.3-4.8-.3-.3-4.3-.3-4.2h-8.9v4.5Z"/>
    <path class="cls-1" d="M355.52,72.57v4.5l-4.7.3-4.8.3-.3,4.7-.3,4.8h10.1v10h10v-10h10v-10h-10v-9h-10v4.4Z"/>
    <path class="cls-1" d="M390.52,72.67v4.5h-9v10h9v10h10v-10h9v-10h-9v-9h-10v4.5Z"/>
    <path class="cls-1" d="M426.52,72.67v4.5h-9v10h9v10h11v-10h9v-10h-9v-9h-11v4.5Z"/>
    <path class="cls-1" d="M469.52,72.67v4.5h-9v10h9v10h9v-9.9l4.6-.3,4.7-.3.1-4.7.1-4.7-4.5-.3-4.5-.3-.3-4.3-.3-4.2h-8.9v4.5Z"/>
    <path class="cls-1" d="M503.72,72.37l.3,4.3-4.8.3-4.7.3v9.9h9.5v9.5l5.3.3,5.2.3v-10.1h9v-10h-9v-9h-11.2l.4,4.2Z"/>
    <path class="cls-1" d="M583.52,72.67v4.5h-10v10h10v10h10v-10h10v-10h-10v-9h-10v4.5Z"/>
    <path class="cls-1" d="M619.42,68.87c0,.5-.1,2.5-.1,4.5v3.8h-8.8v9.9l4.3.3,4.2.3.1,4.5.1,4.5,4.6.3,4.7.3v-10.1h9v-10h-9v-9h-4.5c-2.5,0-4.5.3-4.6.7Z"/>
    <path class="cls-1" d="M654.52,72.67v4.5h-10v10h10v10h10v-10h9v-10h-9v-9h-10v4.5Z"/>
    <path class="cls-1" d="M698.52,72.67v4.5h-9v10h9v10h10v-10h9v-10h-9v-9h-10v4.5Z"/>
    <path class="cls-1" d="M734.02,72.37v4.3l-4.7.3-4.8.3v9.9h10.2l-.3,4.7-.3,4.8h9.9l.3-4.8.3-4.7h8.9v-10h-9v-9h-10.5v4.2Z"/>
    <path class="cls-1" d="M769.52,72.67v4.5h-9v10h9v10.1l4.7-.3,4.6-.3v-9l4.6-.5,4.6-.5.3-4.7.3-4.7-4.8-.3-4.8-.3.1-4.3v-4.2h-9.6v4.5Z"/>
    <path class="cls-1" d="M812.52,72.67v4.5h-10v10h10v10h10v-9.9l4.8-.3,4.7-.3.3-4.8.3-4.7h-10.1v-9h-10v4.5Z"/>
    <path class="cls-1" d="M882.52,72.67v4.5h-9v10h8.9l.3,4.7.3,4.8,5.3.3,5.2.3v-10.1h9v-10h-9v-9h-11v4.5Z"/>
    <path class="cls-1" d="M925.52,72.67v4.5h-9v10h9v10h9v-10h9v-9.9l-4.2-.3q-4.3-.3-4.6-4.6l-.3-4.2h-8.9v4.5Z"/>
    <path class="cls-1" d="M961.52,72.67v4.5h-10v10h10v10h10v-9.9l4.8-.3,4.7-.3.3-4.8.3-4.7h-10.1v-9h-10v4.5Z"/>
    <path class="cls-1" d="M996.52,72.67v4.5h-9v10h9v10h10v-10h9v-10h-9v-9h-10v4.5Z"/>
    <path class="cls-1" d="M1039.52,72.67v4.5h-9v10h9v10.1l5.3-.3,5.2-.3v-9.5h9.5v-9.9l-4.7-.3-4.8-.3.3-4.3.4-4.2h-11.2v4.5Z"/>
    <path class="cls-1" d="M1111.52,72.67v4.5h-10v10h10v10h10v-9.9l4.8-.3,4.7-.3.3-4.8.3-4.7h-10.1v-9h-10v4.5Z"/>
    <path class="cls-1" d="M1153.52,72.67v4.5h-10v10h10v10h10v-9.9l4.3-.3,4.2-.3.3-4.8.3-4.7h-9.1v-9h-10v4.5Z"/>
    <path class="cls-1" d="M1188.52,72.67v4.5h-10v10h10v10h10v-9.9l4.8-.3,4.7-.3.3-4.8.3-4.7h-10.1v-9h-10v4.5Z"/>
    <path class="cls-1" d="M1267.52,72.67v4.5h-9v10h9v10.1l5.3-.3,5.2-.3v-9.5h9.5v-10h-9v-9h-11v4.5Z"/>
    <path class="cls-1" d="M1303.52,72.67v4.5h-9v10h9v10.1l4.7-.3,4.7-.3-.3-4.8-.3-4.7h10.2v-9.9l-4.7-.3-4.8-.3v-8.5h-9.5v4.5Z"/>
    <path class="cls-1" d="M1338.52,72.67v4.5h-10v10h10v10h10v-9.9l4.8-.3,4.7-.3.3-4.8.3-4.7h-10.1v-9h-10v4.5Z"/>
    <path class="cls-1" d="M639.52,136.17v10h-19v20h-19v19h-19v20h-19v20h-19v20h-18.9l-.3,9.7-.3,9.8-9.5.1-9.5.2-.3,9.6-.3,9.6h-18.9v20h-19v20h-19v19h-19v20h-19v21h19v19h19v20h18.9l.3,9.7.3,9.8,9.8.3,9.7.3v19.9h18.5l-.3,9.5-.3,9.5h20.1v20h19v20h19v19h19v20h19v20h19v20h18.9l.3,9.7.3,9.8,9.8.3,9.7.3v-20l9.8-.3,9.7-.3.3-9.8.3-9.7h17.9v-20h19v-19h19v-20h20v-20h19v-19.5h18.5l.3-9.8.3-9.7h18.9v-20h19v-20h18.9l.3-9.8.3-9.7h18.5v-19.4l9.8-.3,9.7-.3v-20l-9.7-.3-9.8-.3v-19.9h-19v-20h-19v-19h-19v-20h-19v-20h-18.9l-.3-9.8-.3-9.7h-18.5v-19.5h-20v-20h-19v-20h-19v-20h-19v-19h-19v-20h-20v10ZM658.52,156.17v9h-18v-18h18v9ZM639.52,176.17v9h-18v-18h18v9ZM677.72,176.17l-.3,9h-17.9v-18h18.5l-.3,9ZM620.52,195.67v9.5h-18v-19h18v9.5ZM658.52,196.17v10h19v19h19v20h18.9l.3,9.7.3,9.8,9.8.3,9.7.3v19.9h19v18.9l9.3.3,9.2.3.3,9.7.3,9.8h18.9v20h18.9l.3,9.7.3,9.8,9.3.3,9.2.3v18.9h-19v20h-19v20h-19v19h-19v20h-19v20h-19.5l.3,9.5.3,9.5h-19.1v19.9l-9.7.3-9.8.3-.3,9.7-.3,9.8h-18.9v19h-18v-19h-19v-20h-19v-19h15v-10h14v-12h13.5l-.2-49-.2-49h10.1l-.2,6.2c-.1,3.5-.2,25.5-.1,49l.1,42.8h13v11h14v11h15v-79h77v-16h-12.9l-.3-7.2-.3-7.2-6.2.3-6.2.2-.3-7.3-.3-7.3-45.2-.3-45.3-.2v-9l45.3-.2,45.2-.3.5-7,.5-7h12l.5-7,.5-7h12v-16h-76.5v-79.5h-14.9l-.3,5.2-.3,5.3-6.5.1-6.5.2-.3,5.5-.3,5.6-6.7.3-6.7.3-.3,48.7-.2,48.8h-9.1l.1-6.3c.1-3.4.1-25.4.1-49l-.1-42.7h-13v-12h-14v-10h-15v79h-77v16h13v14h13v14l44.8.2,44.7.3v10l-44.7.3-44.8.2v14h-13v14h-13v15h-19.1l.3-9.5.3-9.4-9.5-.3-9.5-.3-.3-9.8-.3-9.7h-18.9v-19h19v-20h18.9l.3-9.8.3-9.7,9.3-.3,9.2-.3v-18.8l9.8-.3,9.7-.3.3-9.7.3-9.7,9.2-.3,9.2-.3.3-9.8.3-9.7h18.9v-20h19v-19h19v-20h19v-20h18v10ZM697.52,195.67v9.5h-19v-19h19v9.5ZM601.52,215.67v9.5h-18v-19h18v9.5ZM716.32,215.37l-.3,9.3-9.2.3-9.3.3v-19.1h19.1l-.3,9.2ZM735.32,234.87l-.3,9.8-9.2.3-9.3.3v-20.1h19.1l-.3,9.7ZM582.52,235.67v9.6l-9.2-.3-9.3-.3-.3-9.3-.3-9.2h19.1v9.5ZM563.32,254.87l-.3,9.8h-18l-.3-8.4c-.2-4.6-.1-9,.2-9.8.4-.9,3-1.3,9.6-1.3h9.1l-.3,9.7ZM754.52,254.67v9.5h-19v-19h19v9.5ZM544.52,274.67v9.5h-19v-19h19v9.5ZM773.52,274.67v9.5h-19v-19h19v9.5ZM525.52,294.67v9.5h-19v-19h19v9.5ZM792.52,294.67v9.6l-9.2-.3-9.3-.3-.3-9.3-.3-9.2h19.1v9.5ZM811.52,313.67v9.5h-18v-19h18v9.5ZM506.32,314.37l-.3,9.3-9.2.3-9.3.3v-19.1h19.1l-.3,9.2ZM487.32,333.87l.3,9.3h-19.1v-19.1l9.3.3,9.2.3.3,9.2ZM830.52,333.67v9.5h-18v-19h18v9.5ZM615.52,332.17v6h-13v-12h13v6ZM696.52,332.67v6.6l-6.7-.3-6.8-.3-.1-5.5c-.1-3,0-5.8.3-6.3.2-.4,3.3-.7,6.9-.7h6.4v6.5ZM629.52,345.67v6.5h-13v-13h13v6.5ZM682.02,346.17v6.5l-6.2.3-6.3.3v-14.2l6.3.3,6.2.3v6.5ZM467.52,353.67v9.5h-18v-19h18v9.5ZM849.52,353.67v9.5h-18v-19h18v9.5ZM448.52,373.67v9.5h-18v-19h18v9.5ZM869.32,373.37l-.3,9.3-9.2.3-9.3.3v-19.1h19.1l-.3,9.2ZM467.82,393.37l-.1,9.3-9.1.3-9.1.3v-19.1h18.5l-.2,9.2ZM849.52,393.67v9.5h-18v-19h18v9.5ZM682.52,401.17v7h-13v-14h13v7ZM629.52,401.67v6.5h-13v-13h13v6.5ZM487.52,412.67v9.5h-19v-19h19v9.5ZM830.52,413.17v10h-18v-20h18v10ZM696.52,414.67v6.5h-13v-13h13v6.5ZM615.52,415.17v6h-13v-12h13v6ZM506.52,432.67v9.5h-19v-19h19v9.5ZM602.52,462.17v39h-18.9l-.3-9.8-.3-9.7-9.2-.3-9.3-.3v-18.9h-19v-20h-20v-19h77v39ZM811.52,432.67v9.5h-18v-19h18v9.5ZM525.52,452.67v9.5h-19v-19h19v9.5ZM792.52,452.67v9.5h-19v-19h19v9.5ZM544.52,471.67v9.5h-19v-8.8c0-4.9.3-9.2.7-9.5.3-.4,4.6-.7,9.5-.7h8.8v9.5ZM773.52,472.67v9.5h-19v-19h19v9.5ZM563.52,491.67v9.5h-19v-8.8c0-4.9.3-9.2.7-9.5.3-.4,4.6-.7,9.5-.7h8.8v9.5ZM754.52,492.17v9h-19v-18h19v9ZM582.52,511.67v9.6l-9.2-.3-9.3-.3-.3-9.3-.3-9.2h19.1v9.5ZM735.52,511.67v9.5h-19v-19h19v9.5ZM601.52,531.67v9.5h-18v-19h18v9.5ZM716.52,531.67v9.5h-19v-19h19v9.5ZM621.02,551.17v9.5l-9.2.3-9.3.3v-20.2l9.3.3,9.2.3v9.5ZM697.52,551.67v9.5h-19v-19h19v9.5ZM639.52,570.67v9.5h-18v-19h18v9.5ZM678.32,570.87l.3,9.3h-19.1v-19.1l9.3.3,9.2.3.3,9.2ZM658.82,590.97l.2,9.2h-18.5v-19.1l9.1.3,9,.3.2,9.3Z"/>
    <path class="cls-1" d="M799.52,380.17h-8v8h-16v-8h-8v-16h8v-8.1l7.8.3,7.7.3.3,3.7c.3,3.7.4,3.8,4.3,3.8h3.9"/>
    <path class="cls-1" d="M508.52,389.17v-8h-8v-15h8v-8h16v8h8v15h-8v8"/>
    <path class="cls-1" d="M660.22,500.17l-.22,3.71,4.12.29h4.4v16h-8v8h-16v-8h-8v-16h4.1c3.9,0,4-.1,3.9-3.3-.1-1.7-.2-3.5-.1-4,.1-.4,3.8-.7,8.2-.7l7.38-.29.22,4.29Z"/>
    <path class="cls-1" d="M249.52,151.17v4h-8v9h-9v8h-15.9l-.3-3.8c-.3-3.6-.4-3.7-4.3-3.8-4,0-4-.1-4.3-4.2q-.3-4.2-4.3-4.2t-3.9-4v-4h-9v9h8v9h8v8h9v17h18v-18h9v-8h8v-8h8v-10h-9v4Z"/>
    <path class="cls-1" d="M1041.52,154.17v5h4q4,0,4,3.9t4.3,4.3,4.5,4.5l.3,4.3h8.9v17.1l8.8-.3,8.7-.3.3-8.8.3-8.7h3.9q4,0,4-4v-4h8v-9h9v-9h-10v8h-8v4q0,4-3.9,4-4,0-4.3,4.2l-.3,4.3-8.2.3-8.3.3v-8.1h-8v-8h-9v-9h-9v5Z"/>
    <path class="cls-1" d="M5.52,163.17v10h18v8h9v10h9v9H5.52v8h20.3c11.1,0,23.2.3,26.9.7l6.8.6v9.7H23.52v8h20.3c11.1,0,23.2.3,27,.7l6.7.6v8.7l-18.2.2-18.3.3-.3,4.2-.3,4.3h20.8c11.4,0,23.8.3,27.6.7l6.7.6v8.7h9v8H.52v20h20.1l-.2,9.7-.2,9.8,10.2.3,10.1.3v18.9h20v20h20v20h114v-20h-19.9l-.3-9.8-.3-9.7-9.7-.3-9.8-.3v-18.9h20v19h18.9l.3,9.7.3,9.8,10.3.3,10.2.3v-112.1h-20v-20h-20v-19h-19.9l-.3-9.6-.3-9.6-9.5-.2-9.5-.1-.3-9.8-.3-9.7h-19.9v102h-8.9l-.3-4.8-.3-4.7-4.2-.3-4.3-.3v-54.9h-9v37h-9v-55h-9v36h-9v-55h-9v36.5l-4.5-.3-4.5-.4v-8.8h-9v-9h-8v-18H5.52v10ZM133.52,274.67v9.5h-19v-19h19v9.5ZM154.52,293.67v9.5h-21v-8.8c0-4.9.3-9.2.7-9.5.3-.4,5.1-.7,10.5-.7h9.8v9.5Z"/>
    <path class="cls-1" d="M423.52,162.17v9h-8v10h-9v9h-9v-36h-9v55h-9v-37h-9v55h-9v-36h-9v55h-9v9h-9v-101h-20v19h-20v20h-20v19h-20v20h-20v112h20v20h114v-20h20v-20h20v-19h20v-20h20v-20h-104.1l.3-4.3q.3-4.2,4.6-4.5l4.2-.3v-8.9h26.8c14.8,0,27.1-.2,27.3-.4.3-.3.3-2.3.1-4.5l-.4-4.1h-35.9l.3-4.8.3-4.7,26.8-.3,26.7-.2v-9h-36v-8.7l6.8-.6c3.7-.4,15.8-.7,27-.7h20.2v-8h-36v-10h9v-9h9v-7.9l8.8-.3,8.7-.3v-20l-9.7-.3-9.8-.3v9.1ZM334.52,275.67v9.5h-19v-19h19v9.5ZM314.52,294.67v9.5h-20v20h-20v20h-20v-20h20v-19.5h19.5l.3-9.8.3-9.7h19.9v9.5Z"/>
    <path class="cls-1" d="M857.52,165.17v10h18v8h8v9h9v10h-35v8h19.8c10.8,0,22.7.3,26.5.7l6.7.6v8.7h-36v9h54v10h-35.8l-.4,4.1c-.2,2.2-.2,4.2.1,4.5.2.2,12.5.4,27.3.4h26.8v8.9l4.3.3q4.2.3,4.5,4.5l.3,4.3h-104.1v20h20v20.1l10-.3,10-.3v19.5h20v20h20v20h114v-20h20v-112h-20v-20h-20v-19h-20v-20h-20v-19h-20v101h-9v-9h-9v-55h-9v36.5l-4.2-.1-4.3-.1-.3-27.7-.2-27.7-4.1.3-4.1.3.1,18.2.2,18.3h-10.1v-55h-9v36h-9v-9h-8v-9h-9v-18h-19v10ZM985.32,276.37l-.3,9.3-9.7.3-9.8.3v-19.1h20.1l-.3,9.2ZM1005.52,295.67v9.5h-20v-19h20v9.5ZM1025.32,315.57l.3,9.6h19.9v20h-20v-20h-20v-9.3c0-5.2.2-9.6.4-9.8s4.6-.3,9.8-.2l9.3.1.3,9.6Z"/>
    <path class="cls-1" d="M1165.52,165.17v10h-20.1l.3,9.5.3,9.5h-20.5v19h-20v19.9l-9.7.3-9.8.3-.3,55.7-.2,55.8h21v-20h19v-19h20v19.5h-19.5l-.3,9.7-.3,9.7-9.7.3-9.7.3-.3,9.7-.3,9.8h114.1v-20h20v-19h20v-20h20.5v-19.2l9.5-.2,9.5-.1.3-9.7.3-9.8-51.8-.2-51.8-.3-.3-4.3-.3-4.2h9.1v-8.7l6.8-.6c3.7-.4,16-.7,27.5-.7h20.7v-8l-18.2-.2-18.3-.3-.3-4.6-.3-4.6,6.8-.6c3.7-.4,16-.7,27.3-.7h20.6l-.4-4-.4-4h-35.9l.3-4.8.3-4.7,26.5-.5,26.5-.5.3-4.3.3-4.2h-36.1v-9h9v-10h9v-8h18v-20h-20v18h-8v10.2l-4.2-.4-4.3-.3-.3,4.8-.3,4.7h-8.9v-37.1l-4.2.3-4.3.3-.3,27.2-.2,27.1-4.5.4-4.5.3v-36.5h-9v55h-9v-37.1l-4,.3-4.1.3-.1,22.5c0,12.4-.3,24.9-.5,27.7l-.5,5.3h-8.8v9h-9v-102h-20v10ZM1185.52,276.67v9.5h-19v-19h19v9.5ZM1166.52,296.67v9.5h-21v-19h21v9.5Z"/>
    <path class="cls-1" d="M250.52,182.07q0,4-4.2,4.3t-4.6,4.5-4.3,4.3h-3.9v9h-18v-4q0-4-3.9-4-4,0-4.3-4.3-.3-4.2-4.5-4.5-4.3-.3-4.3-4.3v-3.9h-9.1l.3,4.7c.3,4.7.3,4.8,4,5.1,3.5.3,3.7.5,4,4,.3,3.6.4,3.7,4.6,4s4.2.3,4.2,4.3v3.9h8.9l.3,8.7.3,8.8,8.7.3,8.7.3.3-9.3.3-9.3,4.3.3,4.2.4v-9.2h9v-8h8v-10h-9v3.9Z"/>
    <path class="cls-1" d="M1044.82,180.97l-4.3.3v8.9h9v9h8v8h9v17h19v-18h9v-8h8v-9h8v-9h-9v4q0,4-3.9,4t-4.3,4.2c-.3,4.1-.3,4.2-4.3,4.2q-4,.1-4.3,4.3l-.3,4.3h-17.9v-8h-8v-8h-4q-4,0-4-3.9c0-2.2-.3-4.1-.7-4.3-.5-.2-2.7-.2-5,0Z"/>
    <path class="cls-1" d="M255.52,390.17v10h20v20h20v20h-19.9l-.3-9.8-.3-9.7-9.5-.1-9.5-.2-.3-9.6-.3-9.6h-19.9v111h20v19.9l9.8.3,9.7.3.3,9.8.3,9.8,9.9-.3,10-.3v19.5h20v19.5l10-.3,10-.3v-100.9h9v9h9v55h9v-36h9v55h8v-37h10v54.8l4.1.4c2.2.2,4.2.2,4.5-.1.2-.2.4-8.5.4-18.3v-17.8h9v9h7.9l.3,4.7.3,4.8,4.3.3,4.2.3v17.9h19v-21h-18v-8h-8v-9h-9v-10.1l17.5.3,17.5.3v-8.5h-20.4c-11.1,0-23.1-.3-26.5-.6l-6.1-.7v-8.7h36v-9.1l-22.2.1c-12.3,0-24.4.1-27,0h-4.8v-10h36v-8.5l-21.7.1c-12,.1-24.2-.1-27-.3l-5.3-.5v-8.8h-9v-9h104.1l-.3-9.8-.3-9.7-9.7-.3-9.8-.3v-18.9h-20v-20h-20v-20h-19.9l-.3-9.8-.3-9.7-56.7-.3-56.8-.2v10ZM315.52,449.67v9.5h-20v-19h20v9.5ZM335.32,468.87l-.3,9.8h-19l-.3-8.4c-.2-4.6-.1-9,.2-9.8.4-.9,3.1-1.3,10.1-1.3h9.6l-.3,9.7Z"/>
    <path class="cls-1" d="M81.52,391.17v10h-20v20h-20v18.9l-10.1.3-10.2.3.2,9.7.2,9.8H1.52v20h104v7.9l-4.7.3-4.7.3v4.5l-.1,4.5-4.5.2c-2.5.1-14.8.2-27.3.2l-22.8.1.3,4.2.3,4.3,18.3.3,18.2.2v4.5c0,3.6-.4,4.5-1.7,4.6-1,.1-13.2.5-27.2.8l-25.4.6v7.7l18.1-.2,18.2-.1v9.8l-6.7.6c-3.8.4-15.9.7-27,.7H6.52v8h36v9h-9v10h-9v8H6.52v20h20v-18h8v-9h9v-9h9v36h9v-55h9l.2,18.2.3,18.3h8l.3-27.8.2-27.7h9v37.1l4-.3,4.1-.3.1-22c0-12.1.3-24.3.5-27.2l.5-5.2,4.1-.3,4.2-.3.3-4.8.3-4.7h8.9v102h20v-18.9l9.8-.3,9.7-.3v-19.5h20.5v-19h20v-20h20v-112.1l-10.2.3-10.3.3-.3,9.7-.3,9.8h-18.9v19h-20v-18.9l9.8-.3,9.7-.3v-19.5h20.5v-20h-114v10ZM155.52,450.67v9.5h-21v19h-19v-19h19v-19h21v9.5Z"/>
    <path class="cls-1" d="M1106.52,392.17v10h20v20h-18.9l-.3-9.8-.3-9.7-10.2-.3-10.3-.3v112.1h20v20h20v19h19.9l.3,9.7.3,9.8,9.8.3,9.7.3v18.9h20v-101.5l4.5.3,4.5.4v8.8h9v55h9v-37h9l.2,27.7.3,27.8h8l.3-18.3.2-18.2h9v55h9v-36h9v9h9v9h8v18h20v-20h-18v-8h-9v-9h-9v-10h36v-8h-20.2c-11.2,0-23.3-.3-27-.7l-6.8-.6v-8.7h36v-9h-20.2c-11.2,0-23.3-.3-27-.7l-6.8-.6v-8.7l18.3-.2,18.2-.3v-8l-27.2-.3-27.3-.2v-10h-9v-8h104v-20h-20.1l.2-9.8.2-9.7-10.2-.3-10.1-.3v-18.9h-20v-20h-20v-20h-114v10ZM1146.52,431.67v9.5h-20v-19h20v9.5ZM1167.32,451.37l-.3,9.3-10.2.3-10.3.3v-19.1h21.1l-.3,9.2ZM1186.52,470.67v9.5h-19v-19h19v9.5Z"/>
    <path class="cls-1" d="M932.52,393.17v10h-20v19h-20v20h-19.9l-.3,9.7-.3,9.8-9.5.2-9.5.1-.3,9.6-.3,9.6,51.8.2,51.8.3.3,4.2.3,4.3h-9.1v8.7l-6.7.6c-3.8.4-15.9.7-27,.7h-20.3v8.5l18-.3,18-.3v9.8l-6.7.6c-3.8.4-15.9.7-27,.7h-20.3v8h36v10l-26.7.2-26.8.3v8l17.8.3,17.7.2v9h-9v10.2l-4.2-.4-4.3-.3-.3,4.3-.3,4.2h-18l.3,9.7.3,9.8,9.8.3,9.7.3v-18.1h7.9l.3-4.7.3-4.8,4.3.3,4.2.4v-10.2h9l.2,18.2.3,18.3h8l.3-27.2.2-27.1,4.5-.4,4.5-.3v36.5h9v-55h9v37.1l4.3-.3,4.2-.3.3-27.8.2-27.7h9v-9h9v102h20v-20h20v-19h20v-19h20v-20h20v-112h-20v-20h-114v10ZM1046.32,412.87l-.3,9.8-9.7.3-9.8.3v18.9h-20v19.5l-10-.3-10-.3v-18.9h20v-19.5h19.5l.3-9.8.3-9.7h20l-.3,9.7ZM985.52,471.67v9.5h-19v-19h19v9.5Z"/>
    <path class="cls-1" d="M216.52,529.67v8.5h-9v8h-8v9h-9v9h10v-8h8v-4q0-4,3.9-4t4.3-4.3l.3-4.2h17.8l.1,4.4.1,4.5h4q4,.1,4.3,4.3.3,4.3,4.3,4.3,3.9,0,3.9,4v4h9v-10h-8v-8h-8v-8h-9v-18h-19v8.5Z"/>
    <path class="cls-1" d="M1068.32,530.87l-.3,8.8-4.7.3-4.8.3v4q0,3.9-4,3.9h-4v8h-8v10h9v-8h8v-9h9v-8h18v9h8v9h8v8.1l4.8-.3,4.7-.3v-9l-4.2-.3q-4.3-.3-4.3-4.3t-3.9-3.9-4.3-4.3q-.3-4.2-4.5-4.5l-4.3-.3v-17.9h-17.9l-.3,8.7Z"/>
    <path class="cls-1" d="M217.52,560.67v8.5h-9v3.9q0,4-4.2,4.3t-4.6,4.5-4.3,4.3h-3.9v9h9v-8h9v-8h8v-8h17v9.2l4-.4,4-.4v8.6h8v8h10v-9h-9v-9h-8v-4q0-4-4-4h-3.9l-.3-8.8-.3-8.7-8.7-.3-8.8-.3v8.6Z"/>
    <path class="cls-1" d="M1068.52,562.67v8.5h-9v8h-4q-4,0-4,3.9t-4.2,4.3l-4.3.3-.3,4.7-.3,4.8h10.3l-.4-4-.4-4h8.6v-9.2l4,.4,4,.4v-7.6h17v4q0,4,3.9,4,4,0,4.3,4.2c.3,4.1.3,4.2,4.3,4.2q4,.1,4.3,4.3l.3,4.3h8.9v-10h-8v-8h-9v-9.2l-4,.4-4,.4v-17.6h-18v8.5Z"/>
    <path class="cls-1" d="M624.82,646.97l-4.3.3v8.9h-9v10.6h4.3l4.2-.1.3,4.8.3,4.8,4.7-.3,4.7-.3v-8l4.5-.5,4.5-.5.3-4.8.3-4.7h-9.1v-4.9c0-2.8-.3-5.1-.7-5.3-.5-.2-2.7-.2-5,0Z"/>
    <path class="cls-1" d="M16.52,652.17v5H7.52v10h9v9h10v-9h9v-10h-9v-10h-10v5Z"/>
    <path class="cls-1" d="M52.32,651.87l-.3,4.8-4.7.3-4.8.3v9.9h10v9h10v-8.9l4.7-.3,4.6-.3v-9l-4.6-.3-4.7-.3v-9.9h-9.9l-.3,4.7Z"/>
    <path class="cls-1" d="M87.52,652.17v5h-9v10h9v9h9v-8.9l4.8-.3,4.7-.3.3-4.8.3-4.7h-10.1v-10h-9v5Z"/>
    <path class="cls-1" d="M130.57,652.04v5h-11.1l.3,4.7.3,4.8,5.8.3,4.7.3v8.9h10v-9h10v-10h-10v-10h-10v5Z"/>
    <path class="cls-1" d="M165.52,652.17v5h-9v10h9v9h10v-9h9v-10h-9v-10h-10v5Z"/>
    <path class="cls-1" d="M201.02,651.87v4.8h-9.5v10.1l4.8-.1h4.7l.1,4.5.1,4.5h9.8l.3-4.3.3-4.2h8.9v-10h-9v-10h-10.5v4.7Z"/>
    <path class="cls-1" d="M243.52,652.17v5h-9v10h9v9h9v-8.9l4.8-.3,4.7-.3.3-4.8.3-4.7h-10.1v-10h-9v5Z"/>
    <path class="cls-1" d="M279.52,652.17v5h-10.1l.3,4.7.3,4.8,4.8.3,4.7.3v8.9h10v-9h10v-10h-10v-10h-10v5Z"/>
    <path class="cls-1" d="M314.52,652.17v5h-9v10h9v9h10v-9h9v-10h-9v-10h-10v5Z"/>
    <path class="cls-1" d="M357.52,652.17v5h-10v10h9.9l.3,4.2.3,4.3,4.8.3,4.7.3v-9.1h10v-9.9l-4.7-.3-4.8-.3v-9.5h-10.5v5Z"/>
    <path class="cls-1" d="M393.52,652.17v5h-10.1l.3,4.7.3,4.8,4.8.3,4.7.3v8.9h9v-9h9v-10h-9v-10h-9v5Z"/>
    <path class="cls-1" d="M429.32,651.87l-.3,4.8-4.5.1-4.5.1v9.6l4.5.1,4.5.1.3,4.7.3,4.8h9.9v-8.9l4.8-.3,4.7-.3.3-4.8.3-4.7h-10.1v-10h-9.9l-.3,4.7Z"/>
    <path class="cls-1" d="M470.52,652.17v5h-9v10h9v9h10v-9h9v-10h-9v-10h-10v5Z"/>
    <path class="cls-1" d="M505.52,652.17v5h-10.1l.3,4.7.3,4.8,4.8.3,4.7.3v8.9h10v-9h10v-10h-10v-10h-10v5Z"/>
    <path class="cls-1" d="M541.52,652.17v5h-9v10h9v9h10v-9h9v-10h-9v-10h-10v5Z"/>
    <path class="cls-1" d="M584.52,652.17v5h-9v10h8.9l.3,4.2.3,4.3,4.8.3,4.7.3v-9.1h10v-10h-10v-10h-10v5Z"/>
    <path class="cls-1" d="M655.52,652.17v5h-10v10h10v9h10v-8.9l4.8-.3,4.7-.3.3-4.8.3-4.7h-10.1v-10h-10v5Z"/>
    <path class="cls-1" d="M698.52,652.17v5h-9v10h9v9h9v-9h10.1l-.3-4.8-.3-4.7-4.7-.3-4.8-.3v-9.9h-9v5Z"/>
    <path class="cls-1" d="M733.52,652.07v5l-4.7.3-4.8.3-.3,4.7-.3,4.8h10.1v9h10v-9h10.1l-.3-4.8-.3-4.7-4.7-.3-4.8-.3v-9.9h-10v4.9Z"/>
    <path class="cls-1" d="M768.52,652.17v5h-9v10h9v9h10v-9h9v-10h-9v-10h-10v5Z"/>
    <path class="cls-1" d="M812.42,647.87c0,.5,0,2.7.1,5l.2,4.3h-11.2v9.9l5.8.3,4.7.3v8.5h10.5v-9h9v-10h-9v-10h-5c-2.7,0-5,.3-5.1.7Z"/>
    <path class="cls-1" d="M847.52,652.17v5h-9v10h9v10h8.9l.3-4.8.3-4.7,4.5-.1,4.5-.1v-9.6l-4.5-.1-4.5-.1-.3-5.3-.3-5.2h-8.9v5Z"/>
    <path class="cls-1" d="M882.52,652.17v5h-10v10h10v9h10v-9h10v-10h-10v-10h-10v5Z"/>
    <path class="cls-1" d="M924.52,652.17v5h-9v10h9v9h10v-9h9v-10h-9v-10h-10v5Z"/>
    <path class="cls-1" d="M960.92,648.57c-.3.9-.4,3.2-.2,5.1l.4,3.5h-9.6v10h9v9h11v-9h9v-10h-9.5v-9.5l-4.8-.3c-3.5-.2-4.9.1-5.3,1.2Z"/>
    <path class="cls-1" d="M996.52,652.17v5h-9v10h9v9h9v-9h9v-10h-9v-10h-9v5Z"/>
    <path class="cls-1" d="M1039.52,652.17v5h-10v10h10v9h10v-9h10.1l-.3-4.8-.3-4.7-4.7-.3-4.8-.3v-9.9h-10v5Z"/>
    <path class="cls-1" d="M1074.52,652.07v5.1h-9v10h9v8.8l4.6.4c2.5.2,4.7.1,5-.1.2-.2.4-2.4.4-4.8v-4.3h9.1l-.3-4.8-.3-4.7-4.2-.3-4.2-.3-.3-4.7-.3-4.7-4.7-.3-4.8-.3v5Z"/>
    <path class="cls-1" d="M1110.52,652.17v5h-9v10h9v9h10v-9h10v-10h-10v-10h-10v5Z"/>
    <path class="cls-1" d="M1153.52,652.07v5l-4.7.3-4.8.3-1.3,4.7-.3,4.7,5.8.3,4.8.3.3,4.2.3,4.3h8.9v-9h9v-10h-9v-10h-9v4.9Z"/>
    <path class="cls-1" d="M1188.22,647.77c-.4.4-.7,2.7-.7,5.1v4.3h-9v10h9v9h10.5v-8.5l4.8-.3,4.7-.3v-9.9h-10.2l.3-4.8.3-4.7-4.5-.3c-2.4-.2-4.8,0-5.2.4Z"/>
    <path class="cls-1" d="M1224.52,652.07v5.1h-9v10h9v10.1l4.7-.3,4.7-.3v-4.5l.1-4.5,4.5-.1,4.5-.1v-9.6l-4.5-.1-4.5-.1-.1-5-.1-5-4.6-.3-4.7-.3v5Z"/>
    <path class="cls-1" d="M1267.52,652.17v5h-10v10h10v9h10v-9h10.1l-.3-4.8-.3-4.7-4.7-.3-4.8-.3v-9.9h-10v5Z"/>
    <path class="cls-1" d="M1302.52,652.17v5h-9v10h9v9h10v-9h9v-10h-9v-10h-10v5Z"/>
    <path class="cls-1" d="M1337.52,652.07v5.1h-9v10h9v9h10.5v-8.5l4.8-.3,4.7-.3v-9.9h-10.2l.3-4.8.3-4.7-5.2-.3-5.2-.3v5Z"/>
    <path class="cls-1" d="M50.22,679.77c-.4.4-.7,2-.7,3.6q0,2.8-6.5,2.8h-6.5v6h-14v6h-14v9h14v-6h14v-7.1l6.8.2,6.7.3.3-3.2.3-3.2h12.8l.3,3.2.3,3.2,6.7-.3,6.7-.2.3,3.3.3,3.3,6.8.3q6.7.3,6.7,3.2v3h14v-8h-14v-7h-14v-6h-14.2l.4-3.3.3-3.2-6.5-.3c-3.6-.2-6.9,0-7.3.4Z"/>
    <path class="cls-1" d="M163.32,682.37l-.3,3.3-6.7.3q-6.8.3-6.8,3.2v3h-14v3q0,2.9-6.7,3.2l-6.8.3v8h14v-3l.1-3,6.7-.3q6.7-.3,6.7-3.2v-3h14v-6h14v6h14v7h13v6h15v-8h-14v-7h-14v-6h-13.9l-.3-3.3-.3-3.2-6.7-.3-6.7-.3-.3,3.3Z"/>
    <path class="cls-1" d="M277.22,679.87c-.4.3-.7,1.9-.7,3.5q0,2.8-6.5,2.8h-6.5v6h-14v3q0,2.9-6.7,3.2l-6.8.3-.3,4.2-.3,4.3h14.1v-6h14v-7.1l6.8.2,6.7.3.3-3.2.3-3.2h12.8l.3,3.2c.3,2.9.6,3.2,3.8,3.3,9.6.3,9.9.4,10.2,3.2.3,2.7.5,2.8,7.1,3.1q6.7.3,6.7,3.2c0,2.8.3,3,3.8,3.1,2,0,5.2.1,7,.2,3.1.2,3.2.1,3.2-4.1v-4.2h-14v-7h-14v-6h-14v-7h-6.3c-3.5,0-6.7.3-7,.7Z"/>
    <path class="cls-1" d="M390.52,682.67v3.5h-14v6h-14v6h-13v9h14v-7h13v-6h14v-6h14v3q0,2.9,6.8,3.2l6.7.3.3,3.2.3,3.3h12.9v6h14.6l-.4-4-.4-4h-12.8v-7h-14v-6h-14v-7h-14v3.5Z"/>
    <path class="cls-1" d="M503.52,682.67v3.5h-14v6h-14.2l.4,3,.5,3h-13.7v9h14v-7.1l6.8.2,6.7.3.3-3.2.3-3.2h12.9v-6h14v6h14v7h14v6h14v-8h-14v-7h-14v-6h-14v-7h-14v3.5Z"/>
    <path class="cls-1" d="M618.52,682.67v3.5h-14v6h-14v3q0,2.9-6.7,3.2l-6.8.3v8l6.8.3,6.7.3v-3.1c0-2.8.3-3,3.8-3.1,2-.1,5.2,0,7,.1,3.1.1,3.2,0,3.2-3.5v-3.6l6.8.2,6.7.3.3-3.2.3-3.2h13.9v3q0,2.9,6.8,3.2l6.7.3v3l.1,3,6.7.3q6.7.3,6.7,3.2v3h14v-8h-12.9l-.3-3.3-.3-3.2-6.7-.3q-6.8-.3-6.8-3.2v-3h-13.9l-.3-3.3-.3-3.2-6.7-.3-6.8-.3v3.6Z"/>
    <path class="cls-1" d="M844.92,680.07c-.2.2-.4,1.7-.4,3.3v2.8h-14v6h-13v7h-15v8h15v-6h14v-6h13v-7h14v7h14v6h14v7h14v-9h-14v-6h-14v-7h-14v-2.9c0-2.9-.1-2.9-6.6-3.3-3.6-.1-6.8-.1-7,.1Z"/>
    <path class="cls-1" d="M1185.92,680.07c-.2.2-.4,1.7-.4,3.3q0,2.8-6.5,2.8h-6.5v6h-14v7h-14v8h14v-6h14v-6h14v-7h12.9l.3,3.2.3,3.3,6.8.3q6.7.3,6.7,3.2v3h14v7h14v-9h-14v-3q0-2.9-6.7-3.2l-6.8-.3-.3-3.3-.3-3.2h-13.9v-2.9c0-2.9-.1-2.9-6.6-3.3-3.6-.1-6.8-.1-7,.1Z"/>
    <path class="cls-1" d="M731.52,683.17v3h-14v7.1l-6.7-.3-6.8-.3-.3,3.2-.3,3.3h-12.9v8h14v-6h13v-6h14v-7h14v7h14v6h14v7h14.1l-.3-4.3-.3-4.2-6.7-.3q-6.8-.3-6.8-3.2v-3h-14v-2.9c0-2.9-.1-2.9-7-3.6s-7-.7-7-3.6v-2.9h-14v3Z"/>
    <path class="cls-1" d="M958.52,683.77v3.5l-6.7-.3-6.8-.3-.3,3.3-.3,3.3-6.7-.2-6.6-.2-.1,2.9q0,2.9-6.7,3.2l-6.8.3v7.9h14v-6h14v-6h13v-7h14v7h14v6h14v7h14.1l-.3-4.3-.3-4.2-6.7-.3q-6.8-.3-6.8-3.2v-3h-14v-2.9c0-2.9-.1-2.9-7-3.6s-7-.7-7-3.6v-2.9h-14v3.6Z"/>
    <path class="cls-1" d="M1071.52,683.17q0,2.9-6.7,3.2c-6.7.3-6.8.3-6.8,3,.1,2.8,0,2.8-6.7,2.8h-6.8v7h-14v8h14v-6h14v-3q0-2.9,6.8-3.2l6.7-.3.3-3.3.3-3.2h12.9v7h14v6h14v7h14v-9h-14v-6h-14v-7h-14v-6h-14v3Z"/>
    <path class="cls-1" d="M1300.52,683.17q0,2.9-6.7,3.2l-6.8.3-.3,3.4-.3,3.3-6.5-.7-6.4-.7v7.2h-14v8h14v-6h14v-6h13v-7h14v7h14v6h14v7h14.1l-.3-4.3-.3-4.2-6.7-.3q-6.8-.3-6.8-3.2v-3h-14v-2.9c0-2.9-.1-2.9-7-3.6s-7-.7-7-3.6v-2.9h-14v3Z"/>
    <path class="cls-1" d="M50.22,697.77c-.4.4-.7,2-.7,3.6q0,2.8-6.5,2.8h-6.5v6h-14v9h14v-3c0-2.7.3-3,3.3-3.1,10.5-.3,10.2-.2,10.5-3.7l.3-3.2h12.8l.3,3.2.3,3.3,6.8.3q6.7.3,6.7,3.2v3h14v-9h-14v-6h-14.2l.4-3.3.3-3.2-6.5-.3c-3.6-.2-6.9,0-7.3.4Z"/>
    <path class="cls-1" d="M163.52,700.67v3.5h-14v6h-14.1l.3,4.2.3,4.3,6.7.3,6.7.3.3-3.3.3-3.3,6.5-.1,6.5-.1.3-3.2.3-3.1h13.9v3.6c0,2,.4,3.3,1,2.9.5-.3,3.7-.3,7,.1,5.8.6,6,.8,6,3.6v2.9l6.8-.3,6.7-.3v-8l-6.7-.3q-6.8-.3-6.8-3.2v-3h-13.9l-.3-3.3-.3-3.2-6.7-.3-6.8-.3v3.6Z"/>
    <path class="cls-1" d="M277.22,697.87c-.4.3-.7,1.9-.7,3.5q0,2.8-6.5,2.8h-6.5v6h-14v9h14v-6h14v-7h12.9l.3,3.2.3,3.3,6.8.3q6.7.3,6.7,3.2v3h14v-4.6c0-4.5,0-4.6-3.2-4.4-1.8.1-5,.2-7,.1-3.5-.1-3.8-.3-3.8-3.1v-3h-14v-7h-6.3c-3.5,0-6.7.3-7,.7Z"/>
    <path class="cls-1" d="M390.52,700.67v3.5h-14v6h-14.1l.3,4.2.3,4.3,6.7.3,6.7.3.3-3.3.3-3.3,6.8.3,6.7.3v-7.1h14v7h14v6h14.1l-.3-4.3-.3-4.2-6.7-.3q-6.8-.3-6.8-3.2v-3h-13.9l-.3-3.3-.3-3.2-6.7-.3-6.8-.3v3.6Z"/>
    <path class="cls-1" d="M503.52,700.67v3.5h-14v3q0,2.9-6.7,3.2l-6.8.3v8h14l.3-3.3.3-3.4,6.5.4,6.4.3v-6.5h13.9l.3,3.2c.3,2.8.7,3.2,3.3,3.3,10.8.4,10.5.3,10.5,3.5v3h14v-9h-14v-6h-14v-7h-14v3.5Z"/>
    <path class="cls-1" d="M618.52,700.67v3.5h-14v6h-14v9h14v-6h14v-7h14v7h14.1l-.3,2.7-.3,2.8h14v-8l-6.7-.3q-6.8-.3-6.8-3.2v-3h-13.9l-.3-3.3-.3-3.2-6.7-.3-6.8-.3v3.6Z"/>
    <path class="cls-1" d="M731.52,701.67v3.5h-14v6h-14v8h14v-6h14v-2.9c0-2.6.4-3,3.3-3.3,1.7-.2,4.9-.1,7,.1,3.3.3,3.7.6,3.7,3.2v2.9h14v6h14v-8h-14v-6h-14v-7h-14v3.5Z"/>
    <path class="cls-1" d="M844.52,701.17c0,2.7-.3,3-3.2,3.1-10.6.3-10.3.1-10.6,3.7l-.3,3.4-6.5-.4-6.4-.3v8.5h14v-6h13v-7h14v7h14v6h14v-8h-14v-2.9c0-2.8-.1-2.9-7-3.5-6.9-.7-7-.8-7-3.7v-2.9h-14v3Z"/>
    <path class="cls-1" d="M958.52,701.67v3.5h-14v6h-13.6l.4,4,.4,4h13.8v-6h13v-2.9c0-2.6.4-3,3.3-3.3,1.7-.2,4.9-.1,7,.1,3.3.3,3.7.6,3.7,3.2v2.9h14v6h14v-8h-14v-6h-14v-7h-14v3.5Z"/>
    <path class="cls-1" d="M1071.52,701.37v3.3h-13.5v3l-.1,3h-13.4v8.5h14v-3q0-2.9,6.8-3.2l6.7-.3v-3l.1-3,6.7-.3,6.7-.3v7.1h14v6h14v-8h-14v-2.9c0-2.7-.2-2.8-6.1-3.5-3.4-.3-6.5-.3-7,0s-.9-1.1-.9-3v-3.6h-14v3.2Z"/>
    <path class="cls-1" d="M1185.52,701.47v3.2l-6.4-.3-6.5-.3-.3,3.3-.3,3.3-6.7.3-6.8.3v7.9h14v-6h14v-7h13v7h14v6h14v-8h-14v-6.5l-6.8-.1-6.7-.1-.3-3.1-.3-3.2h-13.9v3.3Z"/>
    <path class="cls-1" d="M1300.52,701.67v3.5h-14v6h-13v8h14v-6h13v-6h14v6h14v6h14v-8h-14v-6h-14v-7h-14v3.5Z"/>
    <path class="cls-1" d="M50.22,718.77c-.4.4-.7,2-.7,3.6q0,2.8-6.5,2.8h-6.5v9h13v8h15v-8h13v-8h-12.9l-.3-3.8-.3-3.7-6.5-.3c-3.6-.2-6.9,0-7.3.4Z"/>
    <path class="cls-1" d="M163.52,721.67v3.5h-14v9h14v8h14v-8h14v-7.7l-6.1-.7c-3.4-.3-6.5-.3-7,0s-.9-1.3-.9-3.5v-4.1h-14v3.5Z"/>
    <path class="cls-1" d="M277.22,718.77c-.4.4-.7,2-.7,3.6q0,2.8-6.5,2.8h-6.5v9h13v7.7l6.5.7c3.6.4,7,.4,7.5.1.6-.4,1-2.4,1-4.6v-3.9h13v-7.9l-6.7-.3-6.7-.3-.1-3.5v-3.5l-6.5-.3c-3.6-.2-6.9,0-7.3.4Z"/>
    <path class="cls-1" d="M390.52,721.67v3.5h-14v9h14v8h14v-8h14v-7.7l-6.1-.7c-3.4-.3-6.5-.3-7,0s-.9-1.3-.9-3.5v-4.1h-14v3.5Z"/>
    <path class="cls-1" d="M503.52,721.67v3.5h-14v9h14v8h14v-8h14v-8l-4.2-.2c-2.4-.1-5.4-.2-6.8-.3-2.1,0-2.5-.6-2.8-3.8l-.3-3.7h-13.9v3.5Z"/>
    <path class="cls-1" d="M618.52,721.67v3.5h-14v9h14v8h14v-8h14v-8h-13.9l-.3-3.8-.3-3.7-6.7-.3-6.8-.3v3.6Z"/>
    <path class="cls-1" d="M844.92,719.07c-.2.2-.4,1.9-.4,3.8v3.3h-14v8h14v9h14v-9h14v-8h-14v-6.8l-6.6-.4c-3.6-.1-6.8-.1-7,.1Z"/>
    <path class="cls-1" d="M1185.92,719.07c-.2.2-.4,1.9-.4,3.8v3.3h-14v8h14v9h13.9l.3-4.3.3-4.2h13.5v-8.5h-14.2l.4-3.6.3-3.6-6.9-.2c-3.7,0-7,.1-7.2.3Z"/>
    <path class="cls-1" d="M731.52,722.67v3.5h-14v8h14v9h14v-7.9l6.8-.3,6.7-.3.3-4.3.3-4.2h-14.1v-7h-14v3.5Z"/>
    <path class="cls-1" d="M958.52,722.67v3.5h-14v8h14v9h14v-8h14v-9h-14v-7h-14v3.5Z"/>
    <path class="cls-1" d="M1071.52,722.67v3.5h-14v8h14v9h14v-9h14v-8h-14v-7h-14v3.5Z"/>
    <path class="cls-1" d="M1300.52,722.67v3.5h-14v8h14v9h13.9l.3-4.3.3-4.2,6.8.3,6.7.3v-9.1h-14v-7h-14v3.5Z"/>
    <path class="cls-1" d="M1701,343.88v-11l-.15-10.42h-18v-19h-19v-20h-19v-20h-18.9l-.3-9.8-.3-9.7h-18.5v-19.5h-20v-20h-19v-20h-19v-20h-19v-19h-19v-20h-20v20h-19v20h-19v19h-19v20h-19v20h-19v20h-18.9l-.3,9.7-.3,9.8-9.5.1-9.5.2-.3,9.6-.3,9.6h-18.9v20h-19v20h-19v19h-19v20h-19v21h19v19h19v20h18.9l.3,9.7.3,9.8,9.8.3,9.7.3v19.9h18.5l-.3,9.5-.3,9.5h20.1v20h19v20h19v19h19v20h19v20h19v20h18.9l.3,9.7.3,9.8,9.8.3,9.7.3v-20l9.8-.3,9.7-.3.3-9.8.3-9.7h17.9v-20h19v-19h19v-20h20v-20h19v-19.5h18.5l.3-9.8.3-9.7h18.9v-20h19v-20h9.5l8.65.42v-20M1509.85,155.46v9h-18v-18h18v9ZM1490.85,175.46v9h-18v-18h18v9ZM1529.05,175.46l-.3,9h-17.9v-18h18.5l-.3,9ZM1471.85,194.96v9.5h-18v-19h18v9.5ZM1509.85,195.46v10h19v19h19v20h18.9l.3,9.7.3,9.8,9.8.3,9.7.3v19.9h19v18.9l9.3.3,9.2.3.3,9.7.3,9.8h18.9v20h18.9l.3,9.7.3,9.8,9.3.3,9.2.3v18.9h-19v20h-19v20h-19v19h-19v20h-19v20h-19.5l.3,9.5.3,9.5h-19.1v19.9l-9.7.3-9.8.3-.3,9.7-.3,9.8h-18.9v19h-18v-19h-19v-20h-19v-19h15v-10h14v-12h13.5l-.2-49-.2-49h10.1l-.2,6.2c-.1,3.5-.2,25.5-.1,49l.1,42.8h13v11h14v11h15v-79h77v-16h-12.9l-.3-7.2-.3-7.2-6.2.3-6.2.2-.3-7.3-.3-7.3-45.2-.3-45.3-.2v-9l45.3-.2,45.2-.3.5-7,.5-7h12l.5-7,.5-7h12v-16h-76.5v-79.5h-14.9l-.3,5.2-.3,5.3-6.5.1-6.5.2-.3,5.5-.3,5.6-6.7.3-6.7.3-.3,48.7-.2,48.8h-9.1l.1-6.3c.1-3.4.1-25.4.1-49l-.1-42.7h-13v-12h-14v-10h-15v79h-77v16h13v14h13v14l44.8.2,44.7.3v10l-44.7.3-44.8.2v14h-13v14h-13v15h-19.1l.3-9.5.3-9.4-9.5-.3-9.5-.3-.3-9.8-.3-9.7h-18.9v-19h19v-20h18.9l.3-9.8.3-9.7,9.3-.3,9.2-.3v-18.8l9.8-.3,9.7-.3.3-9.7.3-9.7,9.2-.3,9.2-.3.3-9.8.3-9.7h18.9v-20h19v-19h19v-20h19v-20h18v10ZM1548.85,194.96v9.5h-19v-19h19v9.5ZM1452.85,214.96v9.5h-18v-19h18v9.5ZM1567.65,214.66l-.3,9.3-9.2.3-9.3.3v-19.1h19.1l-.3,9.2ZM1586.65,234.16l-.3,9.8-9.2.3-9.3.3v-20.1h19.1l-.3,9.7ZM1433.85,234.96v9.6l-9.2-.3-9.3-.3-.3-9.3-.3-9.2h19.1v9.5ZM1414.65,254.16l-.3,9.8h-18l-.3-8.4c-.2-4.6-.1-9,.2-9.8.4-.9,3-1.3,9.6-1.3h9.1l-.3,9.7ZM1605.85,253.96v9.5h-19v-19h19v9.5ZM1395.85,273.96v9.5h-19v-19h19v9.5ZM1624.85,273.96v9.5h-19v-19h19v9.5ZM1376.85,293.96v9.5h-19v-19h19v9.5ZM1643.85,293.96v9.6l-9.2-.3-9.3-.3-.3-9.3-.3-9.2h19.1v9.5ZM1662.85,312.96v9.5h-18v-19h18v9.5ZM1357.65,313.66l-.3,9.3-9.2.3-9.3.3v-19.1h19.1l-.3,9.2ZM1338.65,333.16l.3,9.3h-19.1v-19.1l9.3.3,9.2.3.3,9.2ZM1681.85,332.96v9.5h-18v-19h18v9.5ZM1466.85,331.46v6h-13v-12h13v6ZM1547.85,331.96v6.6l-6.7-.3-6.8-.3-.1-5.5c-.1-3,0-5.8.3-6.3.2-.4,3.3-.7,6.9-.7h6.4v6.5ZM1480.85,344.96v6.5h-13v-13h13v6.5ZM1533.35,345.46v6.5l-6.2.3-6.3.3v-14.2l6.3.3,6.2.3v6.5ZM1318.85,352.96v9.5h-18v-19h18v9.5ZM1700.85,352.96v9.5h-18v-19h18v9.5ZM1299.85,372.96v9.5h-18v-19h18v9.5ZM1319.15,392.66l-.1,9.3-9.1.3-9.1.3v-19.1h18.5l-.2,9.2ZM1701,392.88l-.15,9.58h-18v-19h18l.15,9.42ZM1533.85,400.46v7h-13v-14h13v7ZM1480.85,400.96v6.5h-13v-13h13v6.5ZM1338.85,411.96v9.5h-19v-19h19v9.5ZM1681.85,412.46v10h-18v-20h18v10ZM1547.85,413.96v6.5h-13v-13h13v6.5ZM1466.85,414.46v6h-13v-12h13v6ZM1357.85,431.96v9.5h-19v-19h19v9.5ZM1453.85,461.46v39h-18.9l-.3-9.8-.3-9.7-9.2-.3-9.3-.3v-18.9h-19v-20h-20v-19h77v39ZM1662.85,431.96v9.5h-18v-19h18v9.5ZM1376.85,451.96v9.5h-19v-19h19v9.5ZM1643.85,451.96v9.5h-19v-19h19v9.5ZM1395.85,470.96v9.5h-19v-8.8c0-4.9.3-9.2.7-9.5.3-.4,4.6-.7,9.5-.7h8.8v9.5ZM1624.85,471.96v9.5h-19v-19h19v9.5ZM1414.85,490.96v9.5h-19v-8.8c0-4.9.3-9.2.7-9.5.3-.4,4.6-.7,9.5-.7h8.8v9.5ZM1605.85,491.46v9h-19v-18h19v9ZM1433.85,510.96v9.6l-9.2-.3-9.3-.3-.3-9.3-.3-9.2h19.1v9.5ZM1586.85,510.96v9.5h-19v-19h19v9.5ZM1452.85,530.96v9.5h-18v-19h18v9.5ZM1567.85,530.96v9.5h-19v-19h19v9.5ZM1472.35,550.46v9.5l-9.2.3-9.3.3v-20.2l9.3.3,9.2.3v9.5ZM1548.85,550.96v9.5h-19v-19h19v9.5ZM1490.85,569.96v9.5h-18v-19h18v9.5ZM1529.65,570.16l.3,9.3h-19.1v-19.1l9.3.3,9.2.3.3,9.2ZM1510.15,590.26l.2,9.2h-18.5v-19.1l9.1.3,9,.3.2,9.3Z"/>
    <path class="cls-1" d="M1641.8,361.08c.3,3.7.4,3.8,4.3,3.8h3.9v16h-8v8h-16v-8h-8v-16h8v-8.1l7.8.3,7.7.3.3,3.7Z"/>
    <path class="cls-1" d="M1508.8,221.08c.3,3.7.4,3.8,4.3,3.8h3.9v16h-8v8h-16v-8h-8v-16h8v-8.1l7.8.3,7.7.3.3,3.7Z"/>
  </g>
  <path class="cls-1" d="M642,249.88v-8h-8v-15h8v-8h16v8h8v15h-8v8"/>
  <path class="cls-1" d="M1360,387.88v-8h-8v-15h8v-8h16v8h8v15h-8v8"/>
  <path class="cls-1" d="M1493,527.88v-8h-8v-15h8v-8h16v8h8v15h-8v8"/>
  <path class="cls-1" d="M1414.83,5.41v4.5h-13v7.9l6.8.3,6.7.3v6.5h14.5v-6.9l6.7-.3,6.6-.3v-8l-6.7.3-6.6.3V.91h-15v4.5Z"/>
  <path class="cls-1" d="M1387.83,28.91v4h14v6h13v7h13.9l.3-3.3.3-3.2,7.1-.3,7-.3-.4-2.9-.4-3h14l.4-4,.4-4h-14.6v6h-14v6.5h-13v-6.5h-14v-6h-14v4Z"/>
  <path class="cls-1" d="M1456.83,39.41v3.5h-14v3q0,2.9-6.7,3.2l-6.8.3-.3,3.2-.3,3.3h-12.9v-7h-14v-6h-13v-6h-15v8h13.9l.3,3.2.3,3.3,6.8-.3,6.7-.3v7.1h13v6h14.7l-.5-3-.4-2.9,7.3-.3,7.3-.3.1-3v-3l7.1-.3,7-.3-.4-2.9-.4-3h14.2v-9h-14v3.5Z"/>
  <path class="cls-1" d="M1381.83,72.41v4.5h-9v10h9v10.1l5.3-.3,5.2-.3v-9.5h9.5v-10h-9v-9h-11v4.5Z"/>
  <path class="cls-1" d="M1417.83,72.41v4.5h-9v10h9v10.1l4.7-.3,4.7-.3-.3-4.8-.3-4.7h10.2v-9.9l-4.7-.3-4.8-.3v-8.5h-9.5v4.5Z"/>
  <path class="cls-1" d="M1452.83,72.41v4.5h-10v10h10v10h10v-9.9l4.8-.3,4.7-.3.3-4.8.3-4.7h-10.1v-9h-10v4.5Z"/>
  <path class="cls-1" d="M1529.14,4.89v4.5h-13v7.9l6.8.3,6.7.3v6.5h14.5v-6.9l6.7-.3,6.6-.3v-8l-6.7.3-6.6.3V.39h-15v4.5Z"/>
  <path class="cls-1" d="M1502.14,28.39v4h14v6h13v7h13.9l.3-3.3.3-3.2,7.1-.3,7-.3-.4-2.9-.4-3h14l.4-4,.4-4h-14.6v6h-14v6.5h-13v-6.5h-14v-6h-14v4Z"/>
  <path class="cls-1" d="M1571.14,38.89v3.5h-14v3q0,2.9-6.7,3.2l-6.8.3-.3,3.2-.3,3.3h-12.9v-7h-14v-6h-13v-6h-15v8h13.9l.3,3.2.3,3.3,6.8-.3,6.7-.3v7.1h13v6h14.7l-.5-3-.4-2.9,7.3-.3,7.3-.3.1-3v-3l7.1-.3,7-.3-.4-2.9-.4-3h14.2v-9h-14v3.5Z"/>
  <path class="cls-1" d="M1496.14,71.89v4.5h-10v10h10v10.1l5.3-.3,5.2-.3v-9.5h9.5v-10h-9v-9h-11v4.5Z"/>
  <path class="cls-1" d="M1532.14,71.89v4.5h-9v10h9v10.1l4.7-.3,4.7-.3-.3-4.8-.3-4.7h10.2v-9.9l-4.7-.3-4.8-.3v-8.5h-9.5v4.5Z"/>
  <path class="cls-1" d="M1567.14,71.89v4.5h-10v10h10v10h10v-9.9l4.8-.3,4.7-.3.3-4.8.3-4.7h-10.1v-9h-10v4.5Z"/>
  <path class="cls-1" d="M1642.61,4.5v4.5h-13v7.9l6.8.3,6.7.3v6.5h14.5v-6.9l6.7-.3,6.6-.3v-8l-6.7.3-6.6.3V0h-15v4.5Z"/>
  <path class="cls-1" d="M1615.61,28v4h14v6h13v7h13.9l.3-3.3.3-3.2,7.1-.3,7-.3-.4-2.9-.4-3h14l.4-4,.4-4h-14.6v6h-14v6.5h-13v-6.5h-14v-6h-14v4Z"/>
  <path class="cls-1" d="M1684.61,38.5v3.5h-14v3q0,2.9-6.7,3.2l-6.8.3-.3,3.2-.3,3.3h-12.9v-7h-14v-6h-13v-6h-15v8h13.9l.3,3.2.3,3.3,6.8-.3,6.7-.3v7.1h13v6h14.7l-.5-3-.4-2.9,7.3-.3,7.3-.3.1-3v-3l7.1-.3,7-.3-.4-2.9-.4-3h14.2v-9h-14v3.5Z"/>
  <path class="cls-1" d="M1609.61,71.5v4.5h-9v10h9v10.1l5.3-.3,5.2-.3v-9.5h9.5v-10h-9v-9h-11v4.5Z"/>
  <path class="cls-1" d="M1645.61,71.5v4.5h-9v10h9v10.1l4.7-.3,4.7-.3-.3-4.8-.3-4.7h10.2v-9.9l-4.7-.3-4.8-.3v-8.5h-9.5v4.5Z"/>
  <path class="cls-1" d="M1680.61,71.5v4.5h-10v10h10v10h10v-9.9l4.8-.3,3.7-.3.3-4.8.3-4.7h-9.1v-9h-10v4.5Z"/>
  <path class="cls-1" d="M1380.56,652.63v5h-9v10h9v9h10v-9h9v-10h-9v-10h-10v5Z"/>
  <path class="cls-1" d="M1416.96,649.03c-.3.9-.4,3.2-.2,5.1l.4,3.5h-9.6v10h9v9h11v-9h9v-10h-9.5v-9.5l-4.8-.3c-3.5-.2-4.9.1-5.3,1.2Z"/>
  <path class="cls-1" d="M1452.56,652.63v5h-9v10h9v9h9v-9h9v-10h-9v-10h-9v5Z"/>
  <path class="cls-1" d="M1495.56,652.63v5h-10v10h10v9h10v-9h10.1l-.3-4.8-.3-4.7-4.7-.3-4.8-.3v-9.9h-10v5Z"/>
  <path class="cls-1" d="M1530.56,652.53v5.1h-9v10h9v8.8l4.6.4c2.5.2,4.7.1,5-.1.2-.2.4-2.4.4-4.8v-4.3h9.1l-.3-4.8-.3-4.7-4.2-.3-4.2-.3-.3-4.7-.3-4.7-4.7-.3-4.8-.3v5Z"/>
  <path class="cls-1" d="M1566.56,652.63v5h-9v10h9v9h10v-9h10v-10h-10v-10h-10v5Z"/>
  <path class="cls-1" d="M1609.56,652.53v5l-4.7.3-4.8.3-.3,4.7-.3,4.7,4.8.3,4.8.3.3,4.2.3,4.3h8.9v-9h9v-10h-9v-10h-9v4.9Z"/>
  <path class="cls-1" d="M1644.26,648.23c-.4.4-.7,2.7-.7,5.1v4.3h-9v10h9v9h10.5v-8.5l4.8-.3,4.7-.3v-9.9h-10.2l.3-4.8.3-4.7-4.5-.3c-2.4-.2-4.8,0-5.2.4Z"/>
  <path class="cls-1" d="M1680.56,652.53v5.1h-9v10h9v10.1l4.7-.3,4.7-.3v-4.5l.1-4.5,3.5-.1,2.5-.1v-9.6l-2.5-.1-3.5-.1-.1-5-.1-5-4.6-.3-4.7-.3v5Z"/>
  <path class="cls-1" d="M1641.96,680.53c-.2.2-.4,1.7-.4,3.3q0,2.8-6.5,2.8h-6.5v6h-14v7h-14v8h14v-6h14v-6h14v-7h12.9l.3,3.2.3,3.3,6.8.3q6.7.3,6.7,3.2v3h14v7h11v-9h-11v-3q0-2.9-6.7-3.2l-6.8-.3-.3-3.3-.3-3.2h-13.9v-2.9c0-2.9-.1-2.9-6.6-3.3-3.6-.1-6.8-.1-7,.1Z"/>
  <path class="cls-1" d="M1414.56,684.23v3.5l-6.7-.3-6.8-.3-.3,3.3-.3,3.3-6.7-.2-6.6-.2-.1,2.9q0,2.9-6.7,3.2l-6.8.3v7.9h14v-6h14v-6h13v-7h14v7h14v6h14v7h14.1l-.3-4.3-.3-4.2-6.7-.3q-6.8-.3-6.8-3.2v-3h-14v-2.9c0-2.9-.1-2.9-7-3.6s-7-.7-7-3.6v-2.9h-14v3.6Z"/>
  <path class="cls-1" d="M1527.56,683.63q0,2.9-6.7,3.2c-6.7.3-6.8.3-6.8,3,.1,2.8,0,2.8-6.7,2.8h-6.8v7h-14v8h14v-6h14v-3q0-2.9,6.8-3.2l6.7-.3.3-3.3.3-3.2h12.9v7h14v6h14v7h14v-9h-14v-6h-14v-7h-14v-6h-14v3Z"/>
  <path class="cls-1" d="M1414.56,702.13v3.5h-14v6h-13.6l.4,4,.4,4h13.8v-6h13v-2.9c0-2.6.4-3,3.3-3.3,1.7-.2,4.9-.1,7,.1,3.3.3,3.7.6,3.7,3.2v2.9h14v6h14v-8h-14v-6h-14v-7h-14v3.5Z"/>
  <path class="cls-1" d="M1527.56,701.83v3.3h-13.5v3l-.1,3h-13.4v8.5h14v-3q0-2.9,6.8-3.2l6.7-.3v-3l.1-3,6.7-.3,6.7-.3v7.1h14v6h14v-8h-14v-2.9c0-2.7-.2-2.8-6.1-3.5-3.4-.3-6.5-.3-7,0s-.9-1.1-.9-3v-3.6h-14v3.2Z"/>
  <path class="cls-1" d="M1641.56,701.93v3.2l-6.4-.3-6.5-.3-.3,3.3-.3,3.3-6.7.3-6.8.3v7.9h14v-6h14v-7h13v7h14v6h14v-8h-14v-6.5l-6.8-.1-6.7-.1-.3-3.1-.3-3.2h-13.9v3.3Z"/>
  <path class="cls-1" d="M1641.96,719.53c-.2.2-.4,1.9-.4,3.8v3.3h-14v8h14v9h13.9l.3-4.3.3-4.2h13.5v-8.5h-14.2l.4-3.6.3-3.6-6.9-.2c-3.7,0-7,.1-7.2.3Z"/>
  <path class="cls-1" d="M1414.56,723.13v3.5h-14v8h14v9h14v-8h14v-9h-14v-7h-14v3.5Z"/>
  <path class="cls-1" d="M1527.56,723.13v3.5h-14v8h14v9h14v-9h14v-8h-14v-7h-14v3.5Z"/>
  <rect class="cls-1" x="20" y="360.88" width="20" height="20"/>
  <rect class="cls-1" y="340.88" width="20" height="20"/>
  <rect class="cls-1" y="380.88" width="20" height="20"/>
  <rect class="cls-1" x="214.57" y="127.04" width="20" height="20"/>
  <rect class="cls-1" x="221.57" y="147.04" width="6" height="57"/>
  <rect class="cls-1" x="1065.57" y="129.04" width="20" height="20"/>
  <rect class="cls-1" x="1072.57" y="149.04" width="6" height="57"/>
  <rect class="cls-1" x="216.57" y="596.04" width="20" height="20"/>
  <rect class="cls-1" x="223.57" y="539.04" width="6" height="57"/>
  <rect class="cls-1" x="1067.57" y="595.04" width="20" height="20"/>
  <rect class="cls-1" x="1074.57" y="538.04" width="6" height="57"/>
  <path class="cls-1" d="M499.57,149.54l6,18-20-4-18,4v20l18,6,20-6-6,18,6,20h20l6-20-6-19.5,20,5.5,18-4v-20l-18-4-20,4,6-18-6-18h-20l-6,18Z"/>
  <path class="cls-1" d="M767.57,149.04l6,18-20-4-18,4v20l18,6,20-6-6,18,6,20h20l6-20-6-19.5,20,5.5,18-4v-20l-18-4-20,4,6-18-6-18h-20l-6,18Z"/>
  <path class="cls-1" d="M1350.57,148.04l6,18-20-4-18,4v20l18,6,20-6-6,18,6,20h20l6-20-6-19.5,20,5.5,18-4v-20l-18-4-20,4,6-18-6-18h-20l-6,18Z"/>
  <path class="cls-1" d="M1619.57,149.04l6,18-20-4-18,4v20l18,6,20-6-6,18,6,20h20l6-20-6-19.5,20,5.5,18-4v-20l-18-4-20,4,6-18-6-18h-20l-6,18Z"/>
  <path class="cls-1" d="M499.62,540.18l6,18-20-4-18,4v20l18,6,20-6-6,18,6,20h20l6-20-6-19.5,20,5.5,18-4v-20l-18-4-20,4,6-18-6-18h-20l-6,18Z"/>
  <path class="cls-1" d="M767.62,539.68l6,18-20-4-18,4v20l18,6,20-6-6,18,6,20h20l6-20-6-19.5,20,5.5,18-4v-20l-18-4-20,4,6-18-6-18h-20l-6,18Z"/>
  <path class="cls-1" d="M1350.62,539.68l6,18-20-4-18,4v20l18,6,20-6-6,18,6,20h20l6-20-6-19.5,20,5.5,18-4v-20l-18-4-20,4,6-18-6-18h-20l-6,18Z"/>
  <path class="cls-1" d="M1618.62,539.68l6,18-20-4-18,4v20l18,6,20-6-6,18,6,20h20l6-20-6-19.5,20,5.5,18-4v-20l-18-4-20,4,6-18-6-18h-20l-6,18Z"/>
</svg>