<?xml version="1.0" encoding="UTF-8"?>
<svg id="Layer_1" xmlns="http://www.w3.org/2000/svg" version="1.1" viewBox="0 0 638 638">
<metadata>Created by Nesterov Ivan 2025</metadata>
  <defs><style>.st0 {fill: #f6efe2;}.st1 {fill: #d2beaa;}</style></defs>
  <circle id="elipse" class="st1" cx="319" cy="319" r="319"/>
  <path id="logo" class="st0" d="M313.6,446.6h26.1s7.9-.9,11.9-5.2c3.7-4,3.6-11.5,3.6-11.5,0,0-.5-35,15.7-40.2,16-5.1,36.6,33.8,58.4,48.8,16.5,11.3,29,8.8,29,8.8l58.3-.8s30.5-1.9,16-25.9c-1.2-2-8.4-17.7-43.3-50.2-36.6-33.9-31.7-28.4,12.4-87.1,26.8-35.8,37.5-57.6,34.2-66.9-3.2-8.9-22.9-6.5-22.9-6.5l-65.7.4s-4.9-.7-8.5,1.5-5.8,7-5.8,7c0,0-10.4,27.7-24.2,51.2-29.2,49.6-40.9,52.3-45.7,49.2-11.1-7.2-8.3-28.9-8.3-44.3,0-48.1,7.3-68.2-14.2-73.4-7.1-1.7-12.4-2.9-30.6-3-23.4-.2-43.2,0-54.5,5.6-7.5,3.7-13.2,11.8-9.7,12.3,4.3.6,14.2,2.7,19.4,9.7,6.7,9.2,6.5,29.7,6.5,29.7,0,0,3.9,56.6-9,63.7-8.9,4.8-21-5-47-50.1-8.8-15.7-16.7-31.9-23.4-48.5,0,0-1.9-4.8-5.4-7.3-3.1-2-6.5-3.4-10.1-4.1l-62.4.4s-9.4.3-12.8,4.3c-3.1,3.6-.2,11.1-.2,11.1,0,0,48.8,114.2,104.1,171.8,50.7,52.8,108.3,49.3,108.3,49.3"/>
</svg>