<?xml version="1.0" standalone="no"?>
<!DOCTYPE svg PUBLIC "-//W3C//DTD SVG 20010904//EN"
 "http://www.w3.org/TR/2001/REC-SVG-20010904/DTD/svg10.dtd">
<svg version="1.0" xmlns="http://www.w3.org/2000/svg"
 width="24.000000pt" height="48.000000pt" viewBox="0 0 640.000000 1280.000000"
 preserveAspectRatio="xMidYMid meet">
<metadata>
Created by potrace 1.15, written by Peter Selinger 2001-2017
</metadata>
<g transform="translate(0.000000,1280.000000) scale(0.100000,-0.100000)"
fill="#d9cabb" stroke="none">
<path d="M6175 12780 c-114 -24 -204 -56 -349 -124 -409 -192 -999 -568 -1341
-855 -210 -175 -379 -370 -426 -489 -22 -57 -25 -26 -4 43 8 27 12 51 10 53
-9 9 -133 -98 -189 -164 -171 -201 -300 -458 -331 -659 l-12 -80 -23 50 c-30
65 -35 128 -16 190 8 27 14 51 11 53 -9 9 -294 -368 -554 -733 -307 -430 -406
-589 -579 -927 -253 -496 -295 -615 -294 -833 0 -66 -5 -129 -10 -140 -6 -11
-36 -45 -68 -75 -55 -52 -59 -59 -66 -115 -13 -94 -7 -263 10 -361 21 -111 54
-237 66 -244 14 -9 79 -180 74 -194 -3 -7 13 -53 35 -102 l41 -89 -35 40 c-19
22 -62 86 -96 143 -104 175 -166 353 -196 566 l-18 121 -13 -95 c-8 -52 -52
-322 -99 -600 -46 -278 -98 -588 -114 -690 l-30 -185 70 -317 c39 -175 71
-326 71 -335 -1 -10 -28 47 -60 127 -100 241 -112 271 -116 267 -4 -4 -58
-430 -76 -597 -8 -80 -13 -263 -13 -505 0 -611 21 -752 155 -1056 57 -128 53
-130 -20 -9 -52 86 -54 85 -35 -6 l6 -29 -28 35 c-81 102 -190 201 -260 239
-37 19 -26 6 18 -24 94 -62 186 -165 249 -280 l33 -60 -54 56 c-61 62 -132
120 -169 138 -24 11 -24 11 -5 -3 60 -46 113 -93 133 -118 l24 -28 -29 11
c-15 6 -56 11 -90 11 -84 -1 -145 -29 -213 -100 -30 -31 -75 -73 -100 -93 -99
-79 -135 -219 -93 -365 11 -38 26 -91 32 -119 36 -150 184 -278 340 -294 l66
-6 -2 -100 c-7 -253 -88 -457 -248 -620 -159 -163 -326 -247 -633 -321 -78
-19 -166 -46 -194 -60 -79 -40 -151 -114 -191 -197 -51 -106 -62 -162 -62
-322 1 -154 21 -270 76 -439 42 -126 156 -355 226 -451 l58 -80 -18 -38 c-22
-44 -14 -81 24 -108 27 -19 266 -51 519 -70 413 -29 1289 -21 1717 16 295 26
385 41 405 65 24 30 23 81 -2 113 l-21 26 44 60 c98 133 181 298 246 489 48
144 72 272 78 422 8 220 -29 344 -132 439 -75 67 -136 95 -301 136 -282 69
-447 148 -597 285 -165 151 -255 349 -279 612 -13 136 -6 178 29 178 26 0 79
35 99 65 19 30 27 94 13 112 -7 8 7 20 47 42 32 17 60 31 63 31 10 1 77 93
102 140 21 39 24 59 24 150 0 93 -3 111 -27 163 -22 46 -26 67 -22 100 21 154
-128 267 -298 228 -48 -11 -48 -2 -7 65 56 87 155 207 242 292 46 45 82 82 79
82 -8 0 -89 -48 -172 -102 -41 -27 -61 -37 -45 -23 71 62 243 186 367 264 421
267 636 495 827 881 149 300 205 459 356 1000 52 187 114 398 138 470 l45 130
-41 -32 c-22 -18 -38 -28 -36 -23 116 278 261 705 378 1115 94 330 100 370 42
280 -91 -141 -238 -275 -382 -350 -43 -22 -80 -40 -84 -40 -4 0 22 21 57 47
92 68 286 267 341 350 66 99 141 253 235 483 44 107 120 278 167 380 270 571
421 966 565 1470 74 258 132 432 215 643 35 86 61 157 58 157 -3 0 -82 -57
-177 -127 -94 -69 -178 -131 -186 -137 -8 -6 9 17 38 51 50 58 160 163 320
303 70 61 77 71 156 230 175 350 329 588 562 865 113 135 137 169 127 178 -10
11 -51 7 -148 -13z m-2405 -3171 c0 -6 -41 -95 -91 -198 -458 -938 -667 -1449
-967 -2371 -181 -554 -345 -1139 -562 -2000 -70 -279 -280 -1152 -280 -1165 0
-7 -55 -6 -62 0 -5 5 15 98 123 560 141 600 285 1159 436 1680 116 401 109
375 89 375 -11 0 -16 9 -16 29 0 25 5 30 26 33 26 3 31 17 149 373 206 624
352 1015 573 1530 196 456 541 1165 568 1165 8 0 14 -5 14 -11z m-1462 -5754
c76 -32 112 -86 111 -167 l0 -53 -16 35 c-36 84 -53 106 -98 135 -44 27 -56
30 -136 30 l-88 0 32 17 c41 22 145 23 195 3z m-895 -84 c38 -9 117 -57 117
-71 0 -4 -27 1 -61 11 -91 28 -188 23 -284 -16 -20 -8 -20 -8 0 14 49 56 143
81 228 62z m812 -21 l40 -18 -61 5 c-73 7 -121 -7 -186 -53 -53 -37 -55 -37
-33 10 14 30 31 44 85 73 30 16 98 9 155 -17z m71 -73 c28 -14 56 -32 63 -41
18 -22 5 -71 -30 -111 l-30 -34 -54 25 c-50 23 -125 31 -195 22 -25 -3 -90 14
-90 24 0 19 96 112 135 130 53 25 134 19 201 -15z m-845 -13 c49 -15 65 -33
32 -35 -128 -7 -162 -12 -210 -29 -30 -10 -71 -29 -91 -40 -28 -17 -37 -18
-43 -8 -12 18 -11 55 1 78 9 17 71 43 130 54 36 6 125 -3 181 -20z m-329 -94
c3 -48 1 -53 -35 -88 -40 -39 -107 -161 -107 -194 0 -11 -4 -16 -10 -13 -16
10 -12 137 7 191 11 33 33 66 70 102 30 28 58 52 62 52 5 0 11 -23 13 -50z
m458 30 c11 -6 25 -20 31 -31 10 -19 6 -18 -38 7 -61 35 -60 34 -34 34 12 0
31 -5 41 -10z m830 -30 c27 0 40 -155 17 -198 l-13 -23 -12 25 c-6 14 -31 47
-54 72 -38 42 -41 47 -24 56 31 17 82 67 69 68 -8 0 -10 7 -5 18 6 16 7 16 10
0 2 -10 7 -18 12 -18z m-1105 -45 c-24 -27 -49 -61 -56 -77 -6 -15 -17 -28
-24 -28 -14 0 -65 56 -65 71 0 15 177 95 187 85 2 -1 -17 -24 -42 -51z m271
-26 c57 -37 84 -64 84 -84 0 -3 -20 8 -45 25 -120 82 -231 78 -313 -14 -18
-20 -31 -36 -28 -36 2 0 0 -18 -5 -40 -7 -29 -5 -51 6 -82 18 -52 12 -61 -10
-17 -27 52 -17 167 20 216 31 42 55 65 99 93 29 18 30 18 78 0 27 -10 79 -38
114 -61z m434 26 c0 -8 -62 -37 -67 -31 -14 14 9 36 37 36 16 0 30 -2 30 -5z
m220 -31 c39 -12 66 -29 106 -69 70 -70 77 -96 34 -140 -35 -36 -84 -63 -135
-76 -27 -6 -28 -7 -5 -8 36 -1 109 35 148 72 l32 31 0 -38 c0 -20 -7 -50 -15
-65 -17 -33 -79 -89 -129 -116 -33 -18 -34 -18 -67 6 -32 22 -44 24 -181 27
-113 3 -148 7 -148 16 0 12 42 229 55 281 4 20 71 66 114 80 41 13 101 -63
101 -128 0 -39 -35 -96 -69 -113 -14 -7 -19 -14 -12 -19 11 -6 54 37 78 79 26
45 10 131 -31 165 -9 8 -16 17 -16 22 0 14 82 10 140 -7z m-1051 -49 c19 -19
38 -35 42 -35 5 0 9 -26 9 -57 1 -87 36 -153 114 -209 l29 -21 -36 -12 c-51
-17 -97 -72 -97 -117 0 -55 28 -92 95 -125 l60 -30 -60 6 c-118 13 -234 94
-289 203 -37 72 -32 82 16 37 l42 -40 -47 53 c-27 31 -49 68 -53 87 -7 41 9
122 35 173 20 39 88 122 99 122 4 0 22 -16 41 -35z m356 -14 c52 -24 95 -68
95 -97 0 -54 -24 -131 -49 -159 -14 -16 -19 -24 -10 -17 19 14 28 7 22 -18 -4
-16 -16 -18 -91 -19 -93 0 -129 11 -179 53 -31 26 -47 56 -22 40 6 -3 3 8 -6
26 -33 64 12 170 86 199 39 16 111 12 154 -8z m915 -118 c-12 -56 -30 -71 -30
-26 0 36 34 120 39 96 2 -9 -2 -41 -9 -70z"/>
<path d="M2011 3324 c0 -11 3 -14 6 -6 3 7 2 16 -1 19 -3 4 -6 -2 -5 -13z"/>
<path d="M2148 3203 c6 -2 18 -2 25 0 6 3 1 5 -13 5 -14 0 -19 -2 -12 -5z"/>
</g>
</svg>
